# Blender v2.93.5 OBJ File: ''
# www.blender.org
mtllib board.mtl
o Cube
v 2.000000 0.050000 -1.790142
v 1.962536 0.048675 -1.887903
v 1.887903 0.048675 -1.962536
v 1.790142 0.050000 -2.000000
v 1.790142 -0.050000 -2.000000
v 1.887903 -0.048675 -1.962536
v 2.000000 -0.050000 -1.790142
v 1.962536 -0.048675 -1.887903
v 1.790142 0.050000 2.000000
v 1.887903 0.048675 1.962536
v 1.962536 0.048675 1.887903
v 2.000000 0.050000 1.790142
v 2.000000 -0.050000 1.790142
v 1.962536 -0.048675 1.887903
v 1.790142 -0.050000 2.000000
v 1.887903 -0.048675 1.962536
v -1.790142 0.050000 -2.000000
v -1.887903 0.048675 -1.962536
v -1.962536 0.048675 -1.887903
v -2.000000 0.050000 -1.790142
v -2.000000 -0.050000 -1.790142
v -1.962536 -0.048675 -1.887903
v -1.790142 -0.050000 -2.000000
v -1.887903 -0.048675 -1.962536
v -2.000000 0.050000 1.790142
v -1.962536 0.048675 1.887903
v -1.790142 0.050000 2.000000
v -1.887903 0.048675 1.962536
v -1.790142 -0.050000 2.000000
v -1.887903 -0.048675 1.962536
v -1.962536 -0.048675 1.887903
v -2.000000 -0.050000 1.790142
vt 0.981422 0.364505
vt 0.981423 0.004893
vt 0.991170 0.004893
vt 0.991170 0.364505
vt 0.988717 0.385178
vt 0.988717 0.744791
vt 0.978969 0.744791
vt 0.978970 0.385178
vt 0.703183 0.747281
vt 0.703183 0.387669
vt 0.712930 0.387669
vt 0.712930 0.747281
vt 0.000000 0.000000
vt 0.307115 0.000000
vt 0.307115 0.194376
vt 0.000000 0.194376
vt 0.054479 0.981402
vt 0.026030 0.952952
vt 0.026030 0.467589
vt 0.054479 0.439139
vt 0.539843 0.439139
vt 0.568292 0.467589
vt 0.568292 0.952952
vt 0.539842 0.981402
vt 0.000000 0.217163
vt 0.307115 0.217163
vt 0.307115 0.411539
vt 0.000000 0.411539
vt 0.972592 0.000000
vt 0.972592 0.369398
vt 0.738796 0.369398
vt 0.738796 0.000000
vt 0.970139 0.380285
vt 0.970139 0.749683
vt 0.736343 0.749683
vt 0.736343 0.380285
vt 0.388778 0.369398
vt 0.369398 0.350018
vt 0.369398 0.019380
vt 0.388778 0.000000
vt 0.719416 0.000000
vt 0.738796 0.019380
vt 0.738796 0.350018
vt 0.719416 0.369398
vt 0.303047 0.209821
vt 0.303047 0.201718
vt 0.004068 0.209821
vt 0.004068 0.201718
vt 0.997547 0.380285
vt 0.997547 0.749683
vt 1.000000 0.369398
vt 1.000000 0.000000
vt 0.721760 0.752174
vt 0.694352 0.752174
vt 0.694353 0.382776
vt 0.721760 0.382776
vn 0.7071 0.0000 0.7071
vn -0.7071 0.0000 0.7071
vn -0.7071 0.0000 -0.7071
vn 0.0000 0.0000 -1.0000
vn 0.0000 1.0000 -0.0000
vn 1.0000 0.0000 0.0000
vn 0.0000 0.0000 1.0000
vn -1.0000 0.0000 0.0000
vn 0.0000 -1.0000 -0.0000
vn 0.0220 0.9995 -0.0220
vn 0.9338 0.0000 -0.3578
vn 0.0220 -0.9995 -0.0220
vn 0.3578 0.0000 -0.9338
vn -0.0220 -0.9995 0.0220
vn -0.3578 0.0000 0.9338
vn -0.0220 0.9995 0.0220
vn -0.9338 0.0000 0.3578
vn 0.0220 0.9995 0.0220
vn 0.3578 0.0000 0.9338
vn 0.0220 -0.9995 0.0220
vn 0.9338 0.0000 0.3578
vn -0.0220 0.9995 -0.0220
vn -0.3578 0.0000 -0.9338
vn -0.0220 -0.9995 -0.0220
vn -0.9338 0.0000 -0.3578
vn 0.7071 0.0000 -0.7071
usemtl Material
s off
f 10/1/1 16/2/1 14/3/1 11/4/1
f 30/5/2 28/6/2 26/7/2 31/8/2
f 18/9/3 24/10/3 22/11/3 19/12/3
f 23/13/4 17/14/4 4/15/4 5/16/4
f 1/17/5 4/18/5 17/19/5 20/20/5 25/21/5 27/22/5 9/23/5 12/24/5
f 7/25/6 1/26/6 12/27/6 13/28/6
f 15/29/7 9/30/7 27/31/7 29/32/7
f 32/33/8 25/34/8 20/35/8 21/36/8
f 21/37/9 23/38/9 5/39/9 7/40/9 13/41/9 15/42/9 29/43/9 32/44/9
f 4/15/10 1/26/10 2/45/10 3/46/10
f 1/26/11 7/25/11 8/47/11 2/45/11
f 7/25/12 5/16/12 6/48/12 8/47/12
f 5/16/13 4/15/13 3/46/13 6/48/13
f 32/33/14 29/49/14 30/5/14 31/8/14
f 29/49/15 27/50/15 28/6/15 30/5/15
f 27/50/16 25/34/16 26/7/16 28/6/16
f 25/34/17 32/33/17 31/8/17 26/7/17
f 12/51/18 9/30/18 10/1/18 11/4/18
f 9/30/19 15/29/19 16/2/19 10/1/19
f 15/29/20 13/52/20 14/3/20 16/2/20
f 13/52/21 12/51/21 11/4/21 14/3/21
f 20/53/22 17/54/22 18/9/22 19/12/22
f 17/54/23 23/55/23 24/10/23 18/9/23
f 23/55/24 21/56/24 22/11/24 24/10/24
f 21/56/25 20/53/25 19/12/25 22/11/25
f 2/45/26 8/47/26 6/48/26 3/46/26
