# Blender v2.93.5 OBJ File: ''
# www.blender.org
mtllib joint.mtl
o 柱体
v -0.100000 -0.020000 -0.000000
v -0.100000 -0.010000 -0.000001
v -0.080000 -0.020000 -0.040002
v -0.080000 -0.020000 -0.030000
v -0.088000 -0.020000 -0.008000
v -0.082816 -0.010000 -0.044678
v -0.087299 -0.010000 -0.030000
v -0.094482 -0.010000 -0.010001
v -0.060002 -0.020000 -0.060001
v -0.068001 -0.020000 -0.048001
v -0.070000 -0.020000 -0.030000
v -0.070000 -0.020000 -0.010000
v -0.064770 -0.010000 -0.064769
v -0.074770 -0.010000 -0.054678
v -0.040001 -0.020000 -0.080000
v -0.048001 -0.020000 -0.068001
v -0.050000 -0.020000 -0.050000
v -0.050000 -0.020000 -0.030000
v -0.050000 -0.020000 -0.010000
v -0.044678 -0.010000 -0.082816
v -0.054678 -0.010000 -0.074769
v -0.030000 -0.020000 -0.080000
v -0.030000 -0.020000 -0.070000
v -0.030000 -0.020000 -0.050000
v -0.032000 -0.020000 -0.032000
v -0.040000 -0.020000 -0.010000
v -0.030000 -0.010000 -0.087299
v -0.027824 -0.010000 -0.027824
v -0.037797 -0.010000 -0.010000
v -0.000000 -0.020000 -0.100000
v -0.008000 -0.020000 -0.088000
v -0.010000 -0.020000 -0.070000
v -0.010000 -0.020000 -0.050000
v -0.010000 -0.020000 -0.040000
v -0.000001 -0.010000 -0.100000
v -0.010001 -0.010000 -0.094482
v -0.010000 -0.010000 -0.037797
v -0.100000 -0.020000 0.000000
v -0.100000 -0.010000 0.000001
v -0.088000 -0.020000 0.008000
v -0.080000 -0.020000 0.030000
v -0.080000 -0.020000 0.040001
v -0.094482 -0.010000 0.010001
v -0.087299 -0.010000 0.030000
v -0.082816 -0.010000 0.044678
v -0.070000 -0.020000 0.010000
v -0.070000 -0.020000 0.030000
v -0.068001 -0.020000 0.048001
v -0.060001 -0.020000 0.060002
v -0.074769 -0.010000 0.054678
v -0.064769 -0.010000 0.064876
v -0.050000 -0.020000 0.010000
v -0.050000 -0.020000 0.030000
v -0.050000 -0.020000 0.050000
v -0.048001 -0.020000 0.068001
v -0.040002 -0.020000 0.080000
v -0.054818 -0.010000 0.074876
v -0.044818 -0.010000 0.082824
v -0.040000 -0.020000 0.010000
v -0.032000 -0.020000 0.032000
v -0.030000 -0.020000 0.050000
v -0.030000 -0.020000 0.070000
v -0.030000 -0.020000 0.080000
v -0.037737 -0.010000 0.010000
v -0.027765 -0.010000 0.027748
v -0.030000 -0.010000 0.087307
v -0.010000 -0.020000 0.040000
v -0.010000 -0.020000 0.050000
v -0.010000 -0.020000 0.070000
v -0.008000 -0.020000 0.088000
v -0.000000 -0.020000 0.100000
v -0.010000 -0.010000 0.037525
v -0.010001 -0.010000 0.094482
v -0.000001 -0.010000 0.100000
v -0.100000 0.010000 -0.000001
v -0.100000 0.020000 -0.000000
v -0.082816 0.010000 -0.044678
v -0.087299 0.010000 -0.030000
v -0.094482 0.010000 -0.010001
v -0.080000 0.020000 -0.040001
v -0.080000 0.020000 -0.030000
v -0.088000 0.020000 -0.008000
v -0.064769 0.010000 -0.064770
v -0.074769 0.010000 -0.054678
v -0.060001 0.020000 -0.060002
v -0.068001 0.020000 -0.048001
v -0.070000 0.020000 -0.030000
v -0.070000 0.020000 -0.010000
v -0.044678 0.010000 -0.082816
v -0.054678 0.010000 -0.074770
v -0.040002 0.020000 -0.080000
v -0.048001 0.020000 -0.068001
v -0.050000 0.020000 -0.050000
v -0.050000 0.020000 -0.030000
v -0.050000 0.020000 -0.010000
v -0.030000 0.010000 -0.087299
v -0.027824 0.010000 -0.027824
v -0.037797 0.010000 -0.010000
v -0.030000 0.020000 -0.080000
v -0.030000 0.020000 -0.070000
v -0.030000 0.020000 -0.050000
v -0.032000 0.020000 -0.032000
v -0.040000 0.020000 -0.010000
v -0.000001 0.010000 -0.100000
v -0.010001 0.010000 -0.094482
v -0.010000 0.010000 -0.037797
v -0.000000 0.020000 -0.100000
v -0.008000 0.020000 -0.088000
v -0.010000 0.020000 -0.070000
v -0.010000 0.020000 -0.050000
v -0.010000 0.020000 -0.040000
v -0.100000 0.010000 0.000001
v -0.100000 0.020000 0.000000
v -0.094482 0.010000 0.010001
v -0.087299 0.010000 0.030000
v -0.082816 0.010000 0.044678
v -0.088000 0.020000 0.008000
v -0.080000 0.020000 0.030000
v -0.080000 0.020000 0.040002
v -0.074770 0.010000 0.054678
v -0.064770 0.010000 0.064876
v -0.070000 0.020000 0.010000
v -0.070000 0.020000 0.030000
v -0.068001 0.020000 0.048001
v -0.060002 0.020000 0.060002
v -0.054818 0.010000 0.074876
v -0.044818 0.010000 0.082824
v -0.050000 0.020000 0.010000
v -0.050000 0.020000 0.030000
v -0.050000 0.020000 0.050000
v -0.048001 0.020000 0.068001
v -0.040002 0.020000 0.080000
v -0.037737 0.010000 0.010000
v -0.027765 0.010000 0.027748
v -0.030000 0.010000 0.087307
v -0.040000 0.020000 0.010000
v -0.032000 0.020000 0.032000
v -0.030000 0.020000 0.050000
v -0.030000 0.020000 0.070000
v -0.030000 0.020000 0.080000
v -0.010000 0.010000 0.037525
v -0.010001 0.010000 0.094482
v -0.000001 0.010000 0.100000
v -0.010000 0.020000 0.040000
v -0.010000 0.020000 0.050000
v -0.010000 0.020000 0.070000
v -0.008000 0.020000 0.088000
v -0.000000 0.020000 0.100000
v 0.000000 -0.020000 -0.100000
v 0.008000 -0.020000 -0.088000
v 0.010000 -0.020000 -0.070000
v 0.010000 -0.020000 -0.050000
v 0.010000 -0.020000 -0.040000
v 0.000001 -0.010000 -0.100000
v 0.010001 -0.010000 -0.094482
v 0.010000 -0.010000 -0.037879
v 0.030000 -0.020000 -0.080000
v 0.030000 -0.020000 -0.070000
v 0.030000 -0.020000 -0.050000
v 0.032000 -0.020000 -0.032000
v 0.040000 -0.020000 -0.010000
v 0.030000 -0.010000 -0.087307
v 0.027905 -0.010000 -0.027907
v 0.037878 -0.010000 -0.010000
v 0.040002 -0.020000 -0.080000
v 0.048001 -0.020000 -0.068001
v 0.050000 -0.020000 -0.050000
v 0.050000 -0.020000 -0.030000
v 0.050000 -0.020000 -0.010000
v 0.044818 -0.010000 -0.082824
v 0.054818 -0.010000 -0.074877
v 0.060002 -0.020000 -0.060002
v 0.068001 -0.020000 -0.048001
v 0.070000 -0.020000 -0.030000
v 0.070000 -0.020000 -0.010000
v 0.064877 -0.010000 -0.064877
v 0.074877 -0.010000 -0.054818
v 0.080000 -0.020000 -0.040002
v 0.080000 -0.020000 -0.030000
v 0.088000 -0.020000 -0.008000
v 0.082824 -0.010000 -0.044818
v 0.087307 -0.010000 -0.030000
v 0.094482 -0.010000 -0.010001
v 0.100000 -0.020000 -0.000000
v 0.100000 -0.010000 -0.000001
v 0.010000 -0.020000 0.040000
v 0.010000 -0.020000 0.050000
v 0.010000 -0.020000 0.070000
v 0.008000 -0.020000 0.088000
v 0.000000 -0.020000 0.100000
v 0.010000 -0.010000 0.037632
v 0.010001 -0.010000 0.094482
v 0.000001 -0.010000 0.100000
v 0.040000 -0.020000 0.010000
v 0.032000 -0.020000 0.032000
v 0.030000 -0.020000 0.050000
v 0.030000 -0.020000 0.070000
v 0.030000 -0.020000 0.080000
v 0.037830 -0.010000 0.010000
v 0.027858 -0.010000 0.027855
v 0.030000 -0.010000 0.087299
v 0.050000 -0.020000 0.010000
v 0.050000 -0.020000 0.030000
v 0.050000 -0.020000 0.050000
v 0.048001 -0.020000 0.068001
v 0.040001 -0.020000 0.080000
v 0.054678 -0.010000 0.074769
v 0.044678 -0.010000 0.082816
v 0.070000 -0.020000 0.010000
v 0.070000 -0.020000 0.030000
v 0.068001 -0.020000 0.048001
v 0.060002 -0.020000 0.060001
v 0.074770 -0.010000 0.054678
v 0.064770 -0.010000 0.064769
v 0.088000 -0.020000 0.008000
v 0.080000 -0.020000 0.030000
v 0.080000 -0.020000 0.040002
v 0.094482 -0.010000 0.010001
v 0.087299 -0.010000 0.030000
v 0.082816 -0.010000 0.044678
v 0.100000 -0.020000 0.000000
v 0.100000 -0.010000 0.000001
v 0.000001 0.010000 -0.100000
v 0.010001 0.010000 -0.094482
v 0.010000 0.010000 -0.037879
v 0.000000 0.020000 -0.100000
v 0.008000 0.020000 -0.088000
v 0.010000 0.020000 -0.070000
v 0.010000 0.020000 -0.050000
v 0.010000 0.020000 -0.040000
v 0.030000 0.010000 -0.087307
v 0.027905 0.010000 -0.027907
v 0.037878 0.010000 -0.010000
v 0.030000 0.020000 -0.080000
v 0.030000 0.020000 -0.070000
v 0.030000 0.020000 -0.050000
v 0.032000 0.020000 -0.032000
v 0.040000 0.020000 -0.010000
v 0.044818 0.010000 -0.082824
v 0.054818 0.010000 -0.074877
v 0.040002 0.020000 -0.080000
v 0.048001 0.020000 -0.068001
v 0.050000 0.020000 -0.050000
v 0.050000 0.020000 -0.030000
v 0.050000 0.020000 -0.010000
v 0.064877 0.010000 -0.064877
v 0.074877 0.010000 -0.054818
v 0.060002 0.020000 -0.060002
v 0.068001 0.020000 -0.048001
v 0.070000 0.020000 -0.030000
v 0.070000 0.020000 -0.010000
v 0.082824 0.010000 -0.044818
v 0.087307 0.010000 -0.030000
v 0.094482 0.010000 -0.010001
v 0.080000 0.020000 -0.040002
v 0.080000 0.020000 -0.030000
v 0.088000 0.020000 -0.008000
v 0.100000 0.010000 -0.000001
v 0.100000 0.020000 -0.000000
v 0.010000 0.010000 0.037632
v 0.010001 0.010000 0.094482
v 0.000001 0.010000 0.100000
v 0.010000 0.020000 0.040000
v 0.010000 0.020000 0.050000
v 0.010000 0.020000 0.070000
v 0.008000 0.020000 0.088000
v 0.000000 0.020000 0.100000
v 0.037830 0.010000 0.010000
v 0.027858 0.010000 0.027855
v 0.030000 0.010000 0.087299
v 0.040000 0.020000 0.010000
v 0.032000 0.020000 0.032000
v 0.030000 0.020000 0.050000
v 0.030000 0.020000 0.070000
v 0.030000 0.020000 0.080000
v 0.054678 0.010000 0.074770
v 0.044678 0.010000 0.082816
v 0.050000 0.020000 0.010000
v 0.050000 0.020000 0.030000
v 0.050000 0.020000 0.050000
v 0.048001 0.020000 0.068001
v 0.040002 0.020000 0.080000
v 0.074769 0.010000 0.054678
v 0.064769 0.010000 0.064770
v 0.070000 0.020000 0.010000
v 0.070000 0.020000 0.030000
v 0.068001 0.020000 0.048001
v 0.060001 0.020000 0.060002
v 0.094482 0.010000 0.010001
v 0.087299 0.010000 0.030000
v 0.082816 0.010000 0.044678
v 0.088000 0.020000 0.008000
v 0.080000 0.020000 0.030000
v 0.080000 0.020000 0.040001
v 0.100000 0.010000 0.000001
v 0.100000 0.020000 0.000000
vn -0.8660 -0.4747 -0.1573
vn -0.7770 -0.5634 -0.2809
vn -0.6860 -0.2891 -0.6677
vn -0.0000 -1.0000 -0.0000
vn -0.6028 -0.6288 -0.4912
vn -0.5364 -0.5962 -0.5974
vn -0.5974 -0.5962 -0.5364
vn -0.4911 -0.6288 -0.6028
vn -0.1573 -0.4747 -0.8660
vn 0.8530 -0.3524 0.3850
vn -0.6677 -0.2891 -0.6860
vn -0.2809 -0.5634 -0.7770
vn 0.3850 -0.3524 0.8530
vn -1.0000 -0.0000 0.0000
vn -0.6860 -0.2891 0.6677
vn -0.7770 -0.5634 0.2809
vn -0.8660 -0.4747 0.1573
vn -0.5364 -0.5962 0.5974
vn -0.6030 -0.6303 0.4890
vn -0.4899 -0.6348 0.5975
vn -0.5920 -0.6034 0.5342
vn 0.9760 -0.2179 -0.0014
vn 0.8507 -0.3582 -0.3847
vn -0.1563 -0.4760 0.8654
vn 0.3798 -0.3662 -0.8495
vn -0.2807 -0.5637 0.7769
vn -0.6677 -0.2891 0.6860
vn -0.9564 0.0000 -0.2921
vn -0.9411 0.0000 -0.3381
vn -0.8756 0.0000 -0.4831
vn -0.8660 0.4747 -0.1573
vn -0.7770 0.5634 -0.2809
vn -0.6860 0.2891 -0.6677
vn -0.7103 0.0000 -0.7039
vn -0.7791 0.0000 -0.6269
vn -0.6028 0.6288 -0.4911
vn -0.5364 0.5962 -0.5974
vn -0.0000 1.0000 -0.0000
vn -0.6269 -0.0000 -0.7791
vn -0.7039 -0.0000 -0.7103
vn -0.5974 0.5962 -0.5364
vn -0.4912 0.6288 -0.6028
vn -0.2921 -0.0000 -0.9564
vn 0.8727 -0.0000 0.4883
vn -0.1573 0.4747 -0.8660
vn 0.8530 0.3524 0.3850
vn -0.4831 0.0000 -0.8756
vn -0.3381 -0.0000 -0.9411
vn 0.4883 -0.0000 0.8727
vn -0.6677 0.2891 -0.6860
vn -0.2809 0.5634 -0.7770
vn 0.3850 0.3524 0.8530
vn -0.8756 -0.0000 0.4831
vn -0.9411 -0.0000 0.3381
vn -0.9564 -0.0000 0.2921
vn -0.6860 0.2891 0.6677
vn -0.7770 0.5634 0.2809
vn -0.8660 0.4747 0.1573
vn -0.7791 -0.0000 0.6269
vn -0.7140 -0.0000 0.7001
vn -0.5364 0.5962 0.5974
vn -0.6030 0.6303 0.4890
vn -0.7088 -0.0000 0.7054
vn -0.6222 0.0000 0.7828
vn -0.4899 0.6348 0.5975
vn -0.5920 0.6034 0.5342
vn 1.0000 0.0000 -0.0030
vn 0.8718 0.0000 -0.4899
vn -0.2895 0.0000 0.9572
vn 0.9760 0.2179 -0.0014
vn 0.8507 0.3582 -0.3847
vn -0.1563 0.4760 0.8654
vn 0.4821 0.0000 -0.8761
vn -0.3377 0.0000 0.9413
vn -0.4831 0.0000 0.8756
vn 0.3798 0.3662 -0.8495
vn -0.2807 0.5637 0.7769
vn -0.6677 0.2891 0.6860
vn 0.0000 -0.0000 -1.0000
vn 0.6677 -0.2891 -0.6860
vn 0.0020 -0.2113 0.9774
vn 0.2807 -0.5637 -0.7769
vn -0.3855 -0.3448 0.8559
vn -0.8558 -0.3449 0.3854
vn 0.1563 -0.4760 -0.8654
vn 0.5920 -0.6034 -0.5342
vn 0.4877 -0.6363 -0.5977
vn 0.5977 -0.6363 -0.4877
vn 0.5342 -0.6034 -0.5920
vn 0.8654 -0.4760 -0.1563
vn 0.7769 -0.5637 -0.2807
vn 0.6860 -0.2891 -0.6677
vn 0.0026 -0.2354 -0.9719
vn 0.6677 -0.2891 0.6860
vn 0.0000 -0.0000 1.0000
vn -0.9777 -0.2098 -0.0012
vn -0.8542 -0.3494 -0.3852
vn -0.3805 -0.3566 -0.8532
vn 0.2809 -0.5634 0.7770
vn 0.5974 -0.5962 0.5364
vn 0.1573 -0.4747 0.8660
vn 0.6028 -0.6288 0.4912
vn 0.4911 -0.6288 0.6028
vn 0.7770 -0.5634 0.2809
vn 0.8660 -0.4747 0.1573
vn 0.5364 -0.5962 0.5974
vn 1.0000 -0.0000 0.0000
vn 0.6860 -0.2891 0.6677
vn 0.4831 0.0000 -0.8756
vn 0.0041 0.0000 1.0000
vn 0.6677 0.2891 -0.6860
vn 0.0020 0.2113 0.9774
vn 0.3377 0.0000 -0.9413
vn -0.4866 -0.0000 0.8736
vn -0.8737 -0.0000 0.4866
vn 0.2807 0.5637 -0.7769
vn -0.3855 0.3448 0.8559
vn -0.8558 0.3449 0.3854
vn 0.2895 0.0000 -0.9572
vn 0.6222 0.0000 -0.7829
vn 0.1563 0.4760 -0.8654
vn 0.5920 0.6034 -0.5342
vn 0.7050 0.0000 -0.7092
vn 0.7092 0.0000 -0.7050
vn 0.4877 0.6363 -0.5977
vn 0.5977 0.6363 -0.4877
vn 0.7829 0.0000 -0.6222
vn 0.9572 0.0000 -0.2895
vn 0.9413 0.0000 -0.3377
vn 0.5342 0.6034 -0.5920
vn 0.8654 0.4760 -0.1563
vn 0.7769 0.5637 -0.2807
vn 0.8756 0.0000 -0.4831
vn 0.6860 0.2891 -0.6677
vn 0.0054 0.0000 -1.0000
vn 0.4831 0.0000 0.8756
vn 0.0026 0.2354 -0.9719
vn 0.6677 0.2891 0.6860
vn -1.0000 -0.0000 -0.0024
vn -0.8731 0.0000 -0.4876
vn -0.4802 0.0000 -0.8772
vn 0.3381 -0.0000 0.9411
vn -0.9777 0.2098 -0.0012
vn -0.8542 0.3494 -0.3852
vn -0.3805 0.3566 -0.8532
vn 0.2809 0.5634 0.7770
vn 0.6269 -0.0000 0.7791
vn 0.2921 -0.0000 0.9564
vn 0.5974 0.5962 0.5364
vn 0.1573 0.4747 0.8660
vn 0.7103 0.0000 0.7039
vn 0.7039 -0.0000 0.7103
vn 0.6028 0.6288 0.4911
vn 0.4912 0.6288 0.6028
vn 0.9411 0.0000 0.3381
vn 0.9564 0.0000 0.2921
vn 0.7791 0.0000 0.6269
vn 0.7770 0.5634 0.2809
vn 0.8660 0.4747 0.1573
vn 0.5364 0.5962 0.5974
vn 0.8756 -0.0000 0.4831
vn 0.6860 0.2891 0.6677
usemtl 材质
s off
f 6//1 3//1 4//1 7//1
f 7//2 4//2 5//2 8//2
f 8//3 5//3 1//3 2//3
f 4//4 3//4 10//4 11//4
f 5//4 4//4 11//4 12//4
f 13//5 9//5 10//5 14//5
f 14//6 10//6 3//6 6//6
f 10//4 9//4 16//4 17//4
f 11//4 10//4 17//4 18//4
f 12//4 11//4 18//4 19//4
f 20//7 15//7 16//7 21//7
f 21//8 16//8 9//8 13//8
f 16//4 15//4 22//4 23//4
f 17//4 16//4 23//4 24//4
f 18//4 17//4 24//4 25//4
f 19//4 18//4 25//4 26//4
f 27//9 22//9 15//9 20//9
f 29//10 26//10 25//10 28//10
f 23//4 22//4 31//4 32//4
f 24//4 23//4 32//4 33//4
f 25//4 24//4 33//4 34//4
f 35//11 30//11 31//11 36//11
f 36//12 31//12 22//12 27//12
f 28//13 25//13 34//13 37//13
f 2//14 1//14 38//14 39//14
f 38//4 1//4 5//4 40//4
f 39//15 38//15 40//15 43//15
f 43//16 40//16 41//16 44//16
f 44//17 41//17 42//17 45//17
f 40//4 5//4 12//4 46//4
f 41//4 40//4 46//4 47//4
f 42//4 41//4 47//4 48//4
f 45//18 42//18 48//18 50//18
f 50//19 48//19 49//19 51//19
f 46//4 12//4 19//4 52//4
f 47//4 46//4 52//4 53//4
f 48//4 47//4 53//4 54//4
f 49//4 48//4 54//4 55//4
f 51//20 49//20 55//20 57//20
f 57//21 55//21 56//21 58//21
f 52//4 19//4 26//4 59//4
f 53//4 52//4 59//4 60//4
f 54//4 53//4 60//4 61//4
f 55//4 54//4 61//4 62//4
f 56//4 55//4 62//4 63//4
f 64//22 59//22 26//22 29//22
f 65//23 60//23 59//23 64//23
f 58//24 56//24 63//24 66//24
f 61//4 60//4 67//4 68//4
f 62//4 61//4 68//4 69//4
f 63//4 62//4 69//4 70//4
f 72//25 67//25 60//25 65//25
f 66//26 63//26 70//26 73//26
f 73//27 70//27 71//27 74//27
f 77//28 6//28 7//28 78//28
f 78//29 7//29 8//29 79//29
f 79//30 8//30 2//30 75//30
f 80//31 77//31 78//31 81//31
f 81//32 78//32 79//32 82//32
f 82//33 79//33 75//33 76//33
f 83//34 13//34 14//34 84//34
f 84//35 14//35 6//35 77//35
f 85//36 83//36 84//36 86//36
f 86//37 84//37 77//37 80//37
f 87//38 86//38 80//38 81//38
f 88//38 87//38 81//38 82//38
f 89//39 20//39 21//39 90//39
f 90//40 21//40 13//40 83//40
f 91//41 89//41 90//41 92//41
f 92//42 90//42 83//42 85//42
f 93//38 92//38 85//38 86//38
f 94//38 93//38 86//38 87//38
f 95//38 94//38 87//38 88//38
f 96//43 27//43 20//43 89//43
f 98//44 29//44 28//44 97//44
f 99//45 96//45 89//45 91//45
f 100//38 99//38 91//38 92//38
f 101//38 100//38 92//38 93//38
f 102//38 101//38 93//38 94//38
f 103//46 98//46 97//46 102//46
f 103//38 102//38 94//38 95//38
f 104//47 35//47 36//47 105//47
f 105//48 36//48 27//48 96//48
f 97//49 28//49 37//49 106//49
f 107//50 104//50 105//50 108//50
f 108//51 105//51 96//51 99//51
f 109//38 108//38 99//38 100//38
f 110//38 109//38 100//38 101//38
f 111//38 110//38 101//38 102//38
f 102//52 97//52 106//52 111//52
f 75//14 2//14 39//14 112//14
f 76//14 75//14 112//14 113//14
f 112//53 39//53 43//53 114//53
f 114//54 43//54 44//54 115//54
f 115//55 44//55 45//55 116//55
f 117//38 82//38 76//38 113//38
f 113//56 112//56 114//56 117//56
f 117//57 114//57 115//57 118//57
f 118//58 115//58 116//58 119//58
f 116//59 45//59 50//59 120//59
f 120//60 50//60 51//60 121//60
f 122//38 88//38 82//38 117//38
f 123//38 122//38 117//38 118//38
f 124//38 123//38 118//38 119//38
f 119//61 116//61 120//61 124//61
f 124//62 120//62 121//62 125//62
f 121//63 51//63 57//63 126//63
f 126//64 57//64 58//64 127//64
f 128//38 95//38 88//38 122//38
f 129//38 128//38 122//38 123//38
f 130//38 129//38 123//38 124//38
f 131//38 130//38 124//38 125//38
f 125//65 121//65 126//65 131//65
f 131//66 126//66 127//66 132//66
f 133//67 64//67 29//67 98//67
f 134//68 65//68 64//68 133//68
f 127//69 58//69 66//69 135//69
f 136//70 133//70 98//70 103//70
f 136//38 103//38 95//38 128//38
f 137//71 134//71 133//71 136//71
f 137//38 136//38 128//38 129//38
f 138//38 137//38 129//38 130//38
f 139//38 138//38 130//38 131//38
f 140//38 139//38 131//38 132//38
f 132//72 127//72 135//72 140//72
f 141//73 72//73 65//73 134//73
f 135//74 66//74 73//74 142//74
f 142//75 73//75 74//75 143//75
f 144//76 141//76 134//76 137//76
f 145//38 144//38 137//38 138//38
f 146//38 145//38 138//38 139//38
f 147//38 146//38 139//38 140//38
f 140//77 135//77 142//77 147//77
f 147//78 142//78 143//78 148//78
f 31//4 30//4 149//4 150//4
f 32//4 31//4 150//4 151//4
f 33//4 32//4 151//4 152//4
f 34//4 33//4 152//4 153//4
f 154//79 149//79 30//79 35//79
f 155//80 150//80 149//80 154//80
f 37//81 34//81 153//81 156//81
f 151//4 150//4 157//4 158//4
f 152//4 151//4 158//4 159//4
f 153//4 152//4 159//4 160//4
f 162//82 157//82 150//82 155//82
f 156//83 153//83 160//83 163//83
f 163//84 160//84 161//84 164//84
f 158//4 157//4 165//4 166//4
f 159//4 158//4 166//4 167//4
f 160//4 159//4 167//4 168//4
f 161//4 160//4 168//4 169//4
f 170//85 165//85 157//85 162//85
f 171//86 166//86 165//86 170//86
f 167//4 166//4 172//4 173//4
f 168//4 167//4 173//4 174//4
f 169//4 168//4 174//4 175//4
f 176//87 172//87 166//87 171//87
f 177//88 173//88 172//88 176//88
f 174//4 173//4 178//4 179//4
f 175//4 174//4 179//4 180//4
f 181//89 178//89 173//89 177//89
f 182//90 179//90 178//90 181//90
f 183//91 180//91 179//91 182//91
f 185//92 184//92 180//92 183//92
f 68//4 67//4 186//4 187//4
f 69//4 68//4 187//4 188//4
f 70//4 69//4 188//4 189//4
f 71//4 70//4 189//4 190//4
f 191//93 186//93 67//93 72//93
f 193//94 190//94 189//94 192//94
f 74//95 71//95 190//95 193//95
f 187//4 186//4 195//4 196//4
f 188//4 187//4 196//4 197//4
f 189//4 188//4 197//4 198//4
f 164//96 161//96 194//96 199//96
f 199//97 194//97 195//97 200//97
f 200//98 195//98 186//98 191//98
f 192//99 189//99 198//99 201//99
f 194//4 161//4 169//4 202//4
f 195//4 194//4 202//4 203//4
f 196//4 195//4 203//4 204//4
f 197//4 196//4 204//4 205//4
f 198//4 197//4 205//4 206//4
f 208//100 206//100 205//100 207//100
f 201//101 198//101 206//101 208//101
f 202//4 169//4 175//4 209//4
f 203//4 202//4 209//4 210//4
f 204//4 203//4 210//4 211//4
f 205//4 204//4 211//4 212//4
f 214//102 212//102 211//102 213//102
f 207//103 205//103 212//103 214//103
f 209//4 175//4 180//4 215//4
f 210//4 209//4 215//4 216//4
f 211//4 210//4 216//4 217//4
f 219//104 216//104 215//104 218//104
f 220//105 217//105 216//105 219//105
f 213//106 211//106 217//106 220//106
f 215//4 180//4 184//4 221//4
f 222//107 221//107 184//107 185//107
f 218//108 215//108 221//108 222//108
f 223//79 154//79 35//79 104//79
f 224//109 155//109 154//109 223//109
f 106//110 37//110 156//110 225//110
f 226//79 223//79 104//79 107//79
f 227//111 224//111 223//111 226//111
f 227//38 226//38 107//38 108//38
f 228//38 227//38 108//38 109//38
f 229//38 228//38 109//38 110//38
f 230//38 229//38 110//38 111//38
f 111//112 106//112 225//112 230//112
f 231//113 162//113 155//113 224//113
f 225//114 156//114 163//114 232//114
f 232//115 163//115 164//115 233//115
f 234//116 231//116 224//116 227//116
f 235//38 234//38 227//38 228//38
f 236//38 235//38 228//38 229//38
f 237//38 236//38 229//38 230//38
f 230//117 225//117 232//117 237//117
f 237//118 232//118 233//118 238//118
f 239//119 170//119 162//119 231//119
f 240//120 171//120 170//120 239//120
f 241//121 239//121 231//121 234//121
f 242//122 240//122 239//122 241//122
f 242//38 241//38 234//38 235//38
f 243//38 242//38 235//38 236//38
f 244//38 243//38 236//38 237//38
f 245//38 244//38 237//38 238//38
f 246//123 176//123 171//123 240//123
f 247//124 177//124 176//124 246//124
f 248//125 246//125 240//125 242//125
f 249//126 247//126 246//126 248//126
f 249//38 248//38 242//38 243//38
f 250//38 249//38 243//38 244//38
f 251//38 250//38 244//38 245//38
f 252//127 181//127 177//127 247//127
f 253//128 182//128 181//128 252//128
f 254//129 183//129 182//129 253//129
f 255//130 252//130 247//130 249//130
f 256//131 253//131 252//131 255//131
f 256//38 255//38 249//38 250//38
f 257//132 254//132 253//132 256//132
f 257//38 256//38 250//38 251//38
f 258//133 185//133 183//133 254//133
f 259//134 258//134 254//134 257//134
f 260//135 191//135 72//135 141//135
f 262//136 193//136 192//136 261//136
f 143//95 74//95 193//95 262//95
f 263//137 260//137 141//137 144//137
f 264//38 263//38 144//38 145//38
f 265//38 264//38 145//38 146//38
f 266//38 265//38 146//38 147//38
f 267//138 262//138 261//138 266//138
f 267//38 266//38 147//38 148//38
f 148//95 143//95 262//95 267//95
f 233//139 164//139 199//139 268//139
f 268//140 199//140 200//140 269//140
f 269//141 200//141 191//141 260//141
f 261//142 192//142 201//142 270//142
f 238//143 233//143 268//143 271//143
f 271//144 268//144 269//144 272//144
f 272//145 269//145 260//145 263//145
f 273//38 272//38 263//38 264//38
f 274//38 273//38 264//38 265//38
f 275//38 274//38 265//38 266//38
f 266//146 261//146 270//146 275//146
f 277//147 208//147 207//147 276//147
f 270//148 201//148 208//148 277//148
f 278//38 245//38 238//38 271//38
f 279//38 278//38 271//38 272//38
f 280//38 279//38 272//38 273//38
f 281//38 280//38 273//38 274//38
f 282//149 277//149 276//149 281//149
f 282//38 281//38 274//38 275//38
f 275//150 270//150 277//150 282//150
f 284//151 214//151 213//151 283//151
f 276//152 207//152 214//152 284//152
f 285//38 251//38 245//38 278//38
f 286//38 285//38 278//38 279//38
f 287//38 286//38 279//38 280//38
f 288//153 284//153 283//153 287//153
f 288//38 287//38 280//38 281//38
f 281//154 276//154 284//154 288//154
f 290//155 219//155 218//155 289//155
f 291//156 220//156 219//156 290//156
f 283//157 213//157 220//157 291//157
f 292//38 257//38 251//38 285//38
f 293//158 290//158 289//158 292//158
f 293//38 292//38 285//38 286//38
f 294//159 291//159 290//159 293//159
f 294//38 293//38 286//38 287//38
f 287//160 283//160 291//160 294//160
f 295//107 222//107 185//107 258//107
f 289//161 218//161 222//161 295//161
f 296//107 295//107 258//107 259//107
f 296//38 259//38 257//38 292//38
f 292//162 289//162 295//162 296//162
