# Blender v2.93.5 OBJ File: ''
# www.blender.org
mtllib ALU.mtl
o 立方体
v -0.140617 0.007731 0.145378
v -0.149288 0.162934 -0.149288
v -0.140617 0.007731 -0.137914
v -0.149288 0.162934 0.149288
v 0.142596 0.007731 0.093016
v 0.149288 0.162934 0.059457
v 0.142596 0.007731 -0.081498
v 0.149288 0.162934 -0.059744
v -0.149288 0.100000 0.149288
v -0.149288 0.100000 -0.149288
v 0.149288 0.100000 0.059457
v 0.149288 0.100000 -0.059744
v -0.128229 0.000000 0.200000
v -0.200000 0.000000 0.128229
v -0.150408 0.000000 0.196487
v -0.170415 0.000000 0.186293
v -0.186293 0.000000 0.170415
v -0.196487 0.000000 0.150408
v -0.200000 0.000000 -0.128229
v -0.128229 0.000000 -0.200000
v -0.196487 0.000000 -0.150408
v -0.186293 0.000000 -0.170415
v -0.170415 0.000000 -0.186293
v -0.150408 0.000000 -0.196487
v 0.200000 0.000000 0.128229
v 0.128229 0.000000 0.200000
v 0.196487 0.000000 0.150408
v 0.186293 0.000000 0.170415
v 0.170415 0.000000 0.186293
v 0.150408 0.000000 0.196487
v 0.128229 0.000000 -0.200000
v 0.200000 0.000000 -0.128229
v 0.150408 0.000000 -0.196487
v 0.170415 0.000000 -0.186293
v 0.186293 0.000000 -0.170415
v 0.196487 0.000000 -0.150408
v -0.200000 0.087322 0.128229
v -0.128229 0.087322 0.200000
v -0.158563 0.097681 0.158563
v -0.196487 0.087322 0.150408
v -0.186293 0.087322 0.170415
v -0.170415 0.087322 0.186293
v -0.150408 0.087322 0.196487
v -0.128229 0.087322 -0.200000
v -0.200000 0.087322 -0.128229
v -0.158563 0.097681 -0.158563
v -0.150408 0.087322 -0.196487
v -0.170415 0.087322 -0.186293
v -0.186293 0.087322 -0.170415
v -0.196487 0.087322 -0.150408
v 0.128229 0.087322 0.200000
v 0.200000 0.087322 0.128229
v 0.176933 0.093089 0.136072
v 0.150408 0.087322 0.196487
v 0.170415 0.087322 0.186293
v 0.186293 0.087322 0.170415
v 0.196487 0.087322 0.150408
v 0.200000 0.087322 -0.128229
v 0.128229 0.087322 -0.200000
v 0.176895 0.093098 -0.136099
v 0.196487 0.087322 -0.150408
v 0.186293 0.087322 -0.170415
v 0.170415 0.087322 -0.186293
v 0.150408 0.087322 -0.196487
vt 0.185080 0.773251
vt 0.185080 1.000000
vt 0.000000 1.000000
vt 0.000000 0.773251
vt 0.332955 0.484850
vt 0.552264 0.550894
vt 0.558781 0.557712
vt 0.535176 0.588171
vt 0.346803 0.588171
vt 0.311766 0.541173
vt 0.844697 0.532848
vt 0.587896 0.532848
vt 0.587896 0.346293
vt 0.844697 0.346293
vt 0.844972 0.238747
vt 0.588171 0.238747
vt 0.588171 0.052205
vt 0.844972 0.052205
vt 0.256801 0.720484
vt 0.000000 0.720484
vt 0.000000 0.531933
vt 0.256801 0.531933
vt 0.587896 0.650891
vt 0.807206 0.585056
vt 0.807206 0.804573
vt 0.587896 0.738530
vt 0.844697 0.294086
vt 0.932336 0.294086
vt 0.932336 0.479166
vt 0.844697 0.479166
vt 0.037284 0.294086
vt 0.256801 0.294086
vt 0.256801 0.479166
vt 0.037284 0.479166
vt 0.294086 0.588171
vt 0.502307 0.629649
vt 0.502307 0.757954
vt 0.294086 0.796451
vt 0.992286 0.585056
vt 0.992286 0.811850
vt 0.807206 0.811850
vt 0.807206 0.585056
vt 0.552266 0.331377
vt 0.332956 0.397211
vt 0.311796 0.341070
vt 0.346805 0.294086
vt 0.535179 0.294086
vt 0.558783 0.324557
vt 0.294086 0.535404
vt 0.294088 0.346852
vt 0.030465 0.287266
vt 0.052767 0.256801
vt 0.241319 0.256801
vt 0.263620 0.287266
vt 0.241319 0.000000
vt 0.052767 0.000000
vt 0.257624 0.258093
vt 0.272334 0.256801
vt 0.283476 0.267411
vt 0.281071 0.269816
vt 0.276497 0.274390
vt 0.000000 0.283185
vt 0.002583 0.275032
vt 0.010610 0.267411
vt 0.021751 0.256801
vt 0.036461 0.256801
vt 0.330491 0.586050
vt 0.315816 0.588171
vt 0.301663 0.568030
vt 0.305246 0.558506
vt 0.309834 0.546309
vt 0.293708 0.338654
vt 0.296403 0.324831
vt 0.301676 0.314218
vt 0.315819 0.294086
vt 0.330515 0.294086
vt 0.000000 0.515627
vt 0.256801 0.515627
vt 0.000000 0.500917
vt 0.256801 0.500917
vt 0.000000 0.479166
vt 0.256801 0.479166
vt 0.844972 0.269432
vt 0.588171 0.269432
vt 0.588171 0.254879
vt 0.844972 0.254879
vt 0.257624 0.000000
vt 0.257624 0.256801
vt 0.272334 0.000000
vt 0.294086 0.000000
vt 0.294086 0.256801
vt 0.588171 0.021519
vt 0.844972 0.021519
vt 0.844972 0.036072
vt 0.588171 0.036072
vt 0.844697 0.548981
vt 0.587896 0.548981
vt 0.844697 0.563535
vt 0.587896 0.563535
vt 0.000000 0.256801
vt 0.000000 0.000000
vt 0.021751 0.000000
vt 0.036461 0.000000
vt 0.256801 0.736790
vt 0.000000 0.736790
vt 0.256801 0.751500
vt 0.000000 0.751500
vt 0.256801 0.773251
vt 0.000000 0.773251
vt 0.587896 0.315606
vt 0.844697 0.315606
vt 0.844697 0.330160
vt 0.587896 0.330160
vt 0.294086 0.052767
vt 0.296668 0.036461
vt 0.304163 0.021751
vt 0.315837 0.010078
vt 0.330547 0.002583
vt 0.346852 0.000000
vt 0.535404 0.000000
vt 0.551710 0.002583
vt 0.566420 0.010078
vt 0.578093 0.021751
vt 0.585588 0.036461
vt 0.588171 0.052767
vt 0.588171 0.241319
vt 0.585588 0.257624
vt 0.578093 0.272334
vt 0.566420 0.284008
vt 0.551710 0.291503
vt 0.535404 0.294086
vt 0.346852 0.294086
vt 0.330547 0.291503
vt 0.315837 0.284008
vt 0.304163 0.272334
vt 0.296668 0.257624
vt 0.294086 0.241319
vn 0.2873 0.0000 -0.9579
vn 0.0191 0.9915 0.1289
vn 0.0000 0.0000 -1.0000
vn 0.0000 0.0000 1.0000
vn 1.0000 0.0000 0.0000
vn 0.0000 1.0000 0.0000
vn -1.0000 0.0000 0.0000
vn 0.0000 -1.0000 0.0000
vn 0.2881 0.0000 0.9576
vn 0.0190 0.9915 -0.1291
vn 0.2425 0.9701 0.0000
vn -0.2425 0.9701 0.0000
vn -0.2719 0.9614 0.0431
vn -0.2901 0.9455 0.1478
vn -0.2454 0.9378 0.2454
vn -0.1478 0.9455 0.2901
vn -0.0431 0.9614 0.2719
vn -0.0431 0.9614 -0.2719
vn -0.1478 0.9455 -0.2901
vn -0.2454 0.9378 -0.2454
vn -0.2901 0.9455 -0.1478
vn -0.2719 0.9614 -0.0431
vn 0.0162 0.9946 0.1020
vn 0.0621 0.9906 0.1218
vn 0.1297 0.9830 0.1297
vn 0.2087 0.9722 0.1064
vn 0.2553 0.9660 0.0404
vn 0.2553 0.9660 -0.0404
vn 0.2089 0.9721 -0.1064
vn 0.1299 0.9830 -0.1299
vn 0.0622 0.9906 -0.1220
vn 0.0162 0.9946 -0.1022
vn 0.9877 0.0000 0.1564
vn 0.8910 0.0000 0.4540
vn 0.7071 0.0000 0.7071
vn 0.4540 0.0000 0.8910
vn 0.1564 0.0000 0.9877
vn -0.9877 0.0000 0.1564
vn -0.8910 0.0000 0.4540
vn -0.7071 0.0000 0.7071
vn -0.4540 0.0000 0.8910
vn -0.1564 0.0000 0.9877
vn -0.1564 0.0000 -0.9877
vn -0.4540 0.0000 -0.8910
vn -0.7071 0.0000 -0.7071
vn -0.8910 0.0000 -0.4540
vn -0.9877 0.0000 -0.1564
vn 0.9877 0.0000 -0.1564
vn 0.8910 0.0000 -0.4540
vn 0.7071 0.0000 -0.7071
vn 0.4540 0.0000 -0.8910
vn 0.1564 0.0000 -0.9877
usemtl 材质
s off
f 12/1/1 10/2/1 2/3/1 8/4/1
f 11/5/2 9/6/2 39/7/2 38/8/2 51/9/2 53/10/2
f 20/11/3 44/12/3 59/13/3 31/14/3
f 26/15/4 51/16/4 38/17/4 13/18/4
f 32/19/5 58/20/5 52/21/5 25/22/5
f 8/23/6 2/24/6 4/25/6 6/26/6
f 11/27/5 12/28/5 8/29/5 6/30/5
f 10/31/7 9/32/7 4/33/7 2/34/7
f 3/35/8 7/36/8 5/37/8 1/38/8
f 9/39/9 11/40/9 6/41/9 4/42/9
f 10/43/10 12/44/10 60/45/10 59/46/10 44/47/10 46/48/10
f 12/44/11 11/5/11 53/10/11 52/49/11 58/50/11 60/45/11
f 9/32/12 10/31/12 46/51/12 45/52/12 37/53/12 39/54/12
f 14/55/7 37/53/7 45/52/7 19/56/7
f 37/53/13 40/57/13 39/54/13
f 40/57/14 41/58/14 39/54/14
f 41/58/15 42/59/15 39/54/15
f 42/59/16 43/60/16 39/54/16
f 43/60/17 38/61/17 39/54/17
f 44/62/18 47/63/18 46/51/18
f 47/63/19 48/64/19 46/51/19
f 48/64/20 49/65/20 46/51/20
f 49/65/21 50/66/21 46/51/21
f 50/66/22 45/52/22 46/51/22
f 51/9/23 54/67/23 53/10/23
f 54/67/24 55/68/24 53/10/24
f 55/68/25 56/69/25 53/10/25
f 56/69/26 57/70/26 53/10/26
f 57/70/27 52/71/27 53/10/27
f 58/72/28 61/73/28 60/45/28
f 61/73/29 62/74/29 60/45/29
f 62/74/30 63/75/30 60/45/30
f 63/75/31 64/76/31 60/45/31
f 64/76/32 59/46/32 60/45/32
f 25/22/33 52/21/33 57/77/33 27/78/33
f 27/78/34 57/77/34 56/79/34 28/80/34
f 28/80/35 56/79/35 55/81/35 29/82/35
f 29/83/36 55/84/36 54/85/36 30/86/36
f 30/86/37 54/85/37 51/16/37 26/15/37
f 37/53/38 14/55/38 18/87/38 40/88/38
f 40/88/39 18/87/39 17/89/39 41/58/39
f 41/58/40 17/89/40 16/90/40 42/91/40
f 42/92/41 16/93/41 15/94/41 43/95/41
f 43/95/42 15/94/42 13/18/42 38/17/42
f 44/12/43 20/11/43 24/96/43 47/97/43
f 47/97/44 24/96/44 23/98/44 48/99/44
f 48/100/45 23/101/45 22/102/45 49/65/45
f 49/65/46 22/102/46 21/103/46 50/66/46
f 50/66/47 21/103/47 19/56/47 45/52/47
f 58/20/48 32/19/48 36/104/48 61/105/48
f 61/105/49 36/104/49 35/106/49 62/107/49
f 62/107/50 35/106/50 34/108/50 63/109/50
f 63/110/51 34/111/51 33/112/51 64/113/51
f 64/113/52 33/112/52 31/14/52 59/13/52
f 19/114/8 21/115/8 22/116/8 23/117/8 24/118/8 20/119/8 31/120/8 33/121/8 34/122/8 35/123/8 36/124/8 32/125/8 25/126/8 27/127/8 28/128/8 29/129/8 30/130/8 26/131/8 13/132/8 15/133/8 16/134/8 17/135/8 18/136/8 14/137/8
