# Blender v2.93.5 OBJ File: ''
# www.blender.org
mtllib OutputPin.mtl
o æŸ±ä½“
v -0.006000 -0.034354 -0.010392
v -0.006000 0.000154 -0.010392
v 0.000000 0.000154 -0.012000
v 0.000000 -0.034354 -0.012000
v 0.010392 -0.034354 -0.006000
v 0.010392 0.000154 -0.006000
v 0.012000 0.000154 0.000000
v 0.012000 -0.034354 -0.000000
v 0.010392 0.000154 0.006000
v 0.010392 -0.034354 0.006000
v 0.006000 0.000154 0.010392
v 0.006000 -0.034354 0.010392
v 0.000000 0.000154 0.012000
v 0.000000 -0.034354 0.012000
v -0.006000 0.000154 0.010392
v -0.006000 -0.034354 0.010392
v -0.010392 0.000154 0.006000
v -0.010392 -0.034354 0.006000
v -0.012000 0.000154 0.000000
v -0.012000 -0.034354 -0.000000
v -0.010392 0.000154 -0.006000
v -0.010392 -0.034354 -0.006000
v 0.006000 0.000154 -0.010392
v 0.006000 -0.034354 -0.010392
v 0.005293 -0.047100 -0.009167
v 0.000000 -0.047100 -0.010586
v 0.003361 -0.056430 -0.005821
v 0.000000 -0.056430 -0.006722
v 0.000722 -0.059846 -0.001250
v 0.000000 -0.059846 -0.001444
v 0.009167 -0.047100 -0.005293
v 0.005821 -0.056430 -0.003361
v 0.001250 -0.059846 -0.000722
v 0.010586 -0.047100 -0.000000
v 0.006722 -0.056430 -0.000000
v 0.001444 -0.059846 -0.000000
v 0.009167 -0.047100 0.005293
v 0.005821 -0.056430 0.003361
v 0.001250 -0.059846 0.000722
v 0.005293 -0.047100 0.009167
v 0.003361 -0.056430 0.005821
v 0.000722 -0.059846 0.001250
v 0.000000 -0.047100 0.010586
v 0.000000 -0.056430 0.006722
v 0.000000 -0.059846 0.001444
v -0.005293 -0.047100 0.009167
v -0.003361 -0.056430 0.005821
v -0.000722 -0.059846 0.001250
v -0.009167 -0.047100 0.005293
v -0.005821 -0.056430 0.003361
v -0.001250 -0.059846 0.000722
v -0.010586 -0.047100 -0.000000
v -0.006722 -0.056430 -0.000000
v -0.001444 -0.059846 -0.000000
v -0.009167 -0.047100 -0.005293
v -0.005821 -0.056430 -0.003361
v -0.001250 -0.059846 -0.000722
v -0.005293 -0.047100 -0.009167
v -0.003361 -0.056430 -0.005821
v -0.000722 -0.059846 -0.001250
v 0.022913 0.038928 0.028457
v 0.022913 0.006806 0.028457
v 0.028457 0.006806 0.022913
v 0.028457 0.038928 0.022913
v -0.022913 0.006806 0.028457
v -0.022913 0.038928 0.028457
v -0.028457 0.038928 0.022913
v -0.028457 0.006806 0.022913
v -0.022913 0.038928 -0.028457
v -0.022913 0.006806 -0.028457
v -0.028457 0.006806 -0.022913
v -0.028457 0.038928 -0.022913
v -0.018888 0.000262 -0.030000
v -0.018888 0.045473 -0.030000
v 0.018888 0.045473 -0.030000
v 0.018888 0.000262 -0.030000
v 0.007500 0.045473 0.012990
v 0.018888 0.045473 0.030000
v 0.030000 0.045473 0.018888
v 0.030000 0.045473 -0.018888
v -0.007500 0.045473 -0.012990
v 0.000000 0.045473 -0.015000
v 0.007500 0.045473 -0.012990
v 0.012990 0.045473 -0.007500
v 0.015000 0.045473 0.000000
v 0.012990 0.045473 0.007500
v -0.030000 0.045473 -0.018888
v -0.030000 0.045473 0.018888
v -0.018888 0.045473 0.030000
v 0.000000 0.045473 0.015000
v -0.007500 0.045473 0.012990
v -0.012990 0.045473 0.007500
v -0.015000 0.045473 0.000000
v -0.012990 0.045473 -0.007500
v 0.030000 0.000262 -0.018888
v 0.030000 0.000262 0.018888
v 0.018888 0.000262 0.030000
v -0.018888 0.000262 0.030000
v -0.030000 0.000262 0.018888
v -0.030000 0.000262 -0.018888
v 0.028457 0.038928 -0.022913
v 0.022913 0.038928 -0.028457
v 0.028457 0.006806 -0.022913
v 0.022913 0.006806 -0.028457
v 0.000000 0.016966 -0.015000
v 0.007500 0.016966 -0.012990
v 0.012990 0.016966 -0.007500
v 0.015000 0.016966 0.000000
v 0.012990 0.016966 0.007500
v 0.007500 0.016966 0.012990
v 0.000000 0.016966 0.015000
v -0.007500 0.016966 0.012990
v -0.012990 0.016966 0.007500
v -0.015000 0.016966 0.000000
v -0.012990 0.016966 -0.007500
v -0.007500 0.016966 -0.012990
v 0.000000 0.016720 -0.015000
v 0.007500 0.016720 -0.012990
v 0.012990 0.016720 -0.007500
v 0.015000 0.016720 0.000000
v 0.012990 0.016720 0.007500
v 0.007500 0.016720 0.012990
v -0.000000 0.016720 0.015000
v -0.007500 0.016720 0.012990
v -0.012990 0.016720 0.007500
v -0.015000 0.016720 -0.000000
v -0.012990 0.016720 -0.007500
v -0.007500 0.016720 -0.012990
v 0.000000 0.176720 -0.010201
v 0.000000 0.151998 -0.015000
v 0.000000 0.169480 -0.013594
v 0.005101 0.176720 -0.008834
v 0.007500 0.151998 -0.012990
v 0.006797 0.169480 -0.011773
v 0.008834 0.176720 -0.005101
v 0.012990 0.151998 -0.007500
v 0.011773 0.169480 -0.006797
v 0.010201 0.176720 0.000000
v 0.015000 0.151998 0.000000
v 0.013594 0.169480 0.000000
v 0.008834 0.176720 0.005101
v 0.012990 0.151998 0.007500
v 0.011773 0.169480 0.006797
v 0.005101 0.176720 0.008834
v 0.007500 0.151998 0.012990
v 0.006797 0.169480 0.011773
v -0.000000 0.176720 0.010201
v -0.000000 0.151998 0.015000
v -0.000000 0.169480 0.013594
v -0.005101 0.176720 0.008834
v -0.007500 0.151998 0.012990
v -0.006797 0.169480 0.011773
v -0.008834 0.176720 0.005101
v -0.012990 0.151998 0.007500
v -0.011773 0.169480 0.006797
v -0.010201 0.176720 -0.000000
v -0.015000 0.151998 -0.000000
v -0.013594 0.169480 -0.000000
v -0.008834 0.176720 -0.005101
v -0.012990 0.151998 -0.007500
v -0.011773 0.169480 -0.006797
v -0.005101 0.176720 -0.008834
v -0.007500 0.151998 -0.012990
v -0.006797 0.169480 -0.011773
vt 0.000000 0.862725
vt 0.000000 0.133296
vt 0.035857 0.133241
vt 0.035857 0.862670
vt 0.114363 0.862720
vt 0.114363 0.133290
vt 0.135977 0.133381
vt 0.135977 0.862811
vt 0.135977 0.862723
vt 0.135977 0.133293
vt 0.172235 0.133245
vt 0.172235 0.862675
vt 0.214103 0.133245
vt 0.214103 0.862675
vt 0.250361 0.133293
vt 0.250361 0.862723
vt 0.271294 0.133377
vt 0.271295 0.862806
vt 0.405904 0.000000
vt 0.405904 0.729430
vt 0.385658 0.729523
vt 0.385658 0.000093
vt 0.349801 0.729577
vt 0.349801 0.000148
vt 0.307941 0.729579
vt 0.307941 0.000150
vt 0.271295 0.729528
vt 0.271295 0.000098
vt 0.077717 0.133239
vt 0.077717 0.862668
vt 0.729429 0.786560
vt 0.729429 0.744693
vt 0.750363 0.708435
vt 0.786621 0.687501
vt 0.828488 0.687501
vt 0.864746 0.708435
vt 0.885680 0.744693
vt 0.885680 0.786560
vt 0.864746 0.822818
vt 0.828488 0.843752
vt 0.786621 0.843752
vt 0.750363 0.822818
vt 0.037956 0.039000
vt 0.075893 0.038998
vt 0.043024 0.000001
vt 0.071492 0.000000
vt 0.109106 0.039045
vt 0.096415 0.000035
vt 0.128695 0.039127
vt 0.111114 0.000097
vt 0.141336 0.039046
vt 0.174197 0.039003
vt 0.154274 0.000033
vt 0.178933 0.000000
vt 0.212141 0.039003
vt 0.207406 0.000000
vt 0.245002 0.039046
vt 0.232064 0.000033
vt 0.263974 0.039122
vt 0.246300 0.000089
vt 0.398547 0.823684
vt 0.380198 0.823768
vt 0.380787 0.862716
vt 0.367019 0.862780
vt 0.347702 0.823818
vt 0.342633 0.862817
vt 0.309764 0.823820
vt 0.314166 0.862818
vt 0.276552 0.823773
vt 0.289243 0.862783
vt 0.005459 0.039050
vt 0.018639 0.000039
vt 0.687521 0.647051
vt 0.712179 0.661288
vt 0.726415 0.685946
vt 0.726415 0.714419
vt 0.712179 0.739077
vt 0.687521 0.753313
vt 0.659048 0.753313
vt 0.634389 0.739077
vt 0.620153 0.714419
vt 0.620153 0.685946
vt 0.634389 0.661288
vt 0.659048 0.647051
vt 0.729429 0.568377
vt 0.729429 0.382308
vt 0.758114 0.382264
vt 0.758114 0.568334
vt 0.820918 0.568373
vt 0.820918 0.382303
vt 0.838211 0.382376
vt 0.838211 0.568446
vt 0.838210 0.382301
vt 0.867218 0.382262
vt 0.867218 0.568332
vt 0.900710 0.382262
vt 0.900710 0.568332
vt 0.929717 0.382301
vt 0.929717 0.568371
vt 0.946463 0.382367
vt 0.946463 0.568437
vt 0.513588 0.766104
vt 0.513588 0.952174
vt 0.497392 0.952248
vt 0.497392 0.766178
vt 0.468707 0.952292
vt 0.468707 0.766222
vt 0.435219 0.952294
vt 0.435219 0.766224
vt 0.405904 0.952253
vt 0.405904 0.766183
vt 0.192050 0.987805
vt 0.163042 0.971059
vt 0.146296 0.942051
vt 0.146296 0.908560
vt 0.163042 0.879552
vt 0.192050 0.862806
vt 0.225541 0.862806
vt 0.254549 0.879552
vt 0.271295 0.908560
vt 0.271295 0.942051
vt 0.254549 0.971059
vt 0.225541 0.987805
vt 0.791602 0.568332
vt 0.791602 0.382262
vt 0.789769 0.637078
vt 0.760226 0.637080
vt 0.784757 0.687438
vt 0.765997 0.687438
vt 0.665777 0.813952
vt 0.656397 0.797702
vt 0.683887 0.790336
vt 0.685901 0.793828
vt 0.815627 0.637114
vt 0.801176 0.687461
vt 0.656397 0.778943
vt 0.683887 0.786309
vt 0.830884 0.637179
vt 0.810865 0.687501
vt 0.665777 0.762693
vt 0.685901 0.782817
vt 0.869193 0.637076
vt 0.843602 0.637110
vt 0.874584 0.687431
vt 0.858334 0.687452
vt 0.682027 0.753313
vt 0.689393 0.780804
vt 0.898735 0.637076
vt 0.893343 0.687431
vt 0.700786 0.753313
vt 0.693419 0.780804
vt 0.924326 0.637110
vt 0.909593 0.687452
vt 0.717036 0.762693
vt 0.696912 0.782817
vt 0.939097 0.637169
vt 0.918973 0.687490
vt 0.726415 0.778943
vt 0.698925 0.786309
vt 0.491899 0.697438
vt 0.506185 0.697372
vt 0.476892 0.647093
vt 0.485963 0.647051
vt 0.726415 0.797702
vt 0.698925 0.790336
vt 0.466595 0.697476
vt 0.460824 0.647117
vt 0.717036 0.813952
vt 0.696912 0.793828
vt 0.437052 0.697478
vt 0.442065 0.647118
vt 0.700786 0.823331
vt 0.693419 0.795841
vt 0.411194 0.697441
vt 0.425645 0.647095
vt 0.682027 0.823331
vt 0.689393 0.795841
vt 0.734922 0.637118
vt 0.749929 0.687463
vt 0.800942 0.207538
vt 0.765067 0.207538
vt 0.765067 0.165261
vt 0.800941 0.165261
vt 0.907477 0.308935
vt 0.871603 0.308909
vt 0.871524 0.288466
vt 0.907398 0.288492
vt 0.871603 0.014032
vt 0.907477 0.014058
vt 0.907398 0.051063
vt 0.871524 0.051036
vt 0.620153 0.916957
vt 0.513702 0.916942
vt 0.513588 0.721220
vt 0.620038 0.721236
vt 0.637710 0.202203
vt 0.729429 0.263609
vt 0.669512 0.323526
vt 0.465820 0.323526
vt 0.405904 0.263609
vt 0.405904 0.059917
vt 0.497623 0.121322
vt 0.486785 0.161763
vt 0.497623 0.202203
vt 0.527226 0.231806
vt 0.567666 0.242644
vt 0.608107 0.231806
vt 0.465820 0.000000
vt 0.669512 0.000000
vt 0.729429 0.059917
vt 0.648548 0.161763
vt 0.637710 0.121322
vt 0.608107 0.091720
vt 0.567666 0.080881
vt 0.527226 0.091720
vt 0.729429 0.000000
vt 0.835880 0.000000
vt 0.836211 0.144032
vt 0.729760 0.144032
vt 0.729760 0.228767
vt 0.836211 0.228767
vt 0.835880 0.372799
vt 0.729429 0.372799
vt 0.942662 0.269968
vt 0.836211 0.269891
vt 0.836211 0.074169
vt 0.942662 0.074247
vt 0.465820 0.647051
vt 0.405904 0.587134
vt 0.405904 0.383442
vt 0.465820 0.323526
vt 0.669512 0.323526
vt 0.729429 0.383443
vt 0.729429 0.587134
vt 0.669512 0.647051
vt 0.513702 0.647051
vt 0.548944 0.661062
vt 0.548887 0.698067
vt 0.620153 0.647067
vt 0.584818 0.661068
vt 0.584761 0.698072
vt 0.942820 0.310944
vt 0.800540 0.382262
vt 0.764666 0.382262
vt 0.836369 0.310866
vt 0.836369 0.000000
vt 0.584900 0.935501
vt 0.549026 0.935496
vt 0.942820 0.000078
vt 0.639838 0.774246
vt 0.623454 0.774256
vt 0.623524 0.753323
vt 0.639908 0.753313
vt 0.902170 0.822118
vt 0.885787 0.822106
vt 0.885709 0.801862
vt 0.902092 0.801874
vt 0.885680 0.766006
vt 0.902064 0.766018
vt 0.885709 0.724145
vt 0.902092 0.724157
vt 0.885787 0.687501
vt 0.902170 0.687513
vt 0.640014 0.889300
vt 0.639936 0.853444
vt 0.656320 0.853434
vt 0.656397 0.889290
vt 0.639908 0.811584
vt 0.656292 0.811574
vt 0.639936 0.774940
vt 0.656320 0.774929
vt 0.640014 0.753324
vt 0.656397 0.753313
vt 0.639908 0.888629
vt 0.623524 0.888639
vt 0.623454 0.852380
vt 0.639838 0.852370
vt 0.623428 0.810515
vt 0.639812 0.810505
vt 0.750361 0.864684
vt 0.786621 0.843752
vt 0.828485 0.843752
vt 0.864745 0.864684
vt 0.885677 0.900944
vt 0.885677 0.942808
vt 0.864745 0.979068
vt 0.828485 1.000000
vt 0.786621 1.000000
vt 0.750361 0.979068
vt 0.729429 0.942808
vt 0.729429 0.900944
vn -0.2588 0.0000 -0.9659
vn 0.9659 0.0000 -0.2588
vn 0.9659 0.0000 0.2588
vn 0.7071 0.0000 0.7071
vn 0.2588 0.0000 0.9659
vn -0.2588 0.0000 0.9659
vn -0.7071 0.0000 0.7071
vn -0.9659 -0.0000 0.2588
vn -0.9659 0.0000 -0.2588
vn -0.7071 0.0000 -0.7071
vn 0.2588 0.0000 -0.9659
vn 0.7071 0.0000 -0.7071
vn 0.0000 -1.0000 -0.0000
vn 0.2580 0.0774 -0.9630
vn 0.2358 0.4124 -0.8800
vn 0.7050 0.0774 -0.7050
vn 0.6442 0.4124 -0.6442
vn 0.9630 0.0774 -0.2580
vn 0.8800 0.4124 -0.2358
vn 0.9630 0.0774 0.2580
vn 0.8800 0.4124 0.2358
vn 0.7050 0.0774 0.7050
vn 0.6442 0.4124 0.6442
vn 0.2580 0.0774 0.9630
vn 0.2358 0.4124 0.8800
vn -0.2580 0.0774 0.9630
vn -0.2358 0.4124 0.8800
vn -0.7050 0.0774 0.7050
vn -0.6442 0.4124 0.6442
vn -0.9630 0.0774 0.2580
vn -0.8800 0.4124 0.2358
vn -0.9630 0.0774 -0.2580
vn -0.8800 0.4124 -0.2358
vn -0.7050 0.0774 -0.7050
vn -0.6442 0.4124 -0.6442
vn -0.2580 0.0774 -0.9630
vn -0.2358 0.4124 -0.8800
vn 0.0000 1.0000 0.0000
vn -0.2589 0.0000 -0.9659
vn 0.9659 0.0000 -0.2589
vn 0.9659 -0.0000 0.2589
vn 0.2589 -0.0000 0.9659
vn -0.2589 -0.0000 0.9659
vn -0.9659 -0.0000 0.2589
vn -0.9659 0.0000 -0.2589
vn 0.2589 0.0000 -0.9659
vn 0.2574 -0.1066 -0.9604
vn 0.2404 -0.3714 -0.8968
vn 0.1442 -0.8308 -0.5376
vn 0.7031 -0.1066 -0.7031
vn 0.6565 -0.3714 -0.6565
vn 0.3936 -0.8308 -0.3936
vn 0.9604 -0.1066 -0.2574
vn 0.8968 -0.3714 -0.2404
vn 0.5376 -0.8308 -0.1442
vn 0.9604 -0.1066 0.2574
vn 0.8968 -0.3714 0.2404
vn 0.5376 -0.8308 0.1442
vn 0.7031 -0.1066 0.7031
vn 0.6565 -0.3714 0.6565
vn 0.3936 -0.8308 0.3936
vn 0.2574 -0.1066 0.9604
vn 0.2404 -0.3714 0.8968
vn 0.1442 -0.8308 0.5376
vn -0.2574 -0.1066 0.9604
vn -0.2404 -0.3714 0.8968
vn -0.1442 -0.8308 0.5376
vn -0.7031 -0.1066 0.7031
vn -0.6565 -0.3714 0.6565
vn -0.3936 -0.8308 0.3936
vn -0.9604 -0.1066 0.2574
vn -0.8968 -0.3714 0.2404
vn -0.5376 -0.8308 0.1442
vn -0.9604 -0.1066 -0.2574
vn -0.8968 -0.3714 -0.2404
vn -0.5376 -0.8308 -0.1442
vn -0.7031 -0.1066 -0.7031
vn -0.6565 -0.3714 -0.6565
vn -0.3936 -0.8308 -0.3936
vn -0.2574 -0.1066 -0.9604
vn -0.2404 -0.3714 -0.8968
vn -0.1442 -0.8308 -0.5376
vn 0.0000 0.0000 -1.0000
vn 1.0000 -0.0000 0.0000
vn 0.0000 -0.0000 1.0000
vn -1.0000 0.0000 0.0000
vn 0.6830 0.2590 -0.6830
vn 0.9337 0.0000 -0.3580
vn 0.6830 -0.2590 -0.6830
vn 0.3580 0.0000 -0.9337
vn -0.6830 -0.2590 0.6830
vn -0.3580 -0.0000 0.9337
vn -0.6830 0.2590 0.6830
vn -0.9337 -0.0000 0.3580
vn 0.6830 0.2590 0.6830
vn 0.3580 -0.0000 0.9337
vn 0.6830 -0.2590 0.6830
vn 0.9337 -0.0000 0.3580
vn -0.6830 0.2590 -0.6830
vn -0.3580 0.0000 -0.9337
vn -0.6830 -0.2590 -0.6830
vn -0.9337 0.0000 -0.3580
usemtl æè´¨.002
s off
f 128/1/1 163/2/1 130/3/1 117/4/1
f 119/5/2 136/6/2 139/7/2 120/8/2
f 120/9/3 139/10/3 142/11/3 121/12/3
f 121/12/4 142/11/4 145/13/4 122/14/4
f 122/14/5 145/13/5 148/15/5 123/16/5
f 123/16/6 148/15/6 151/17/6 124/18/6
f 124/19/7 151/20/7 154/21/7 125/22/7
f 125/22/8 154/21/8 157/23/8 126/24/8
f 126/24/9 157/23/9 160/25/9 127/26/9
f 127/26/10 160/25/10 163/27/10 128/28/10
f 117/4/11 130/3/11 133/29/11 118/30/11
f 118/30/12 133/29/12 136/6/12 119/5/12
f 117/31/13 118/32/13 119/33/13 120/34/13 121/35/13 122/36/13 123/37/13 124/38/13 125/39/13 126/40/13 127/41/13 128/42/13
f 133/29/14 130/3/14 131/43/14 134/44/14
f 134/44/15 131/43/15 129/45/15 132/46/15
f 136/6/16 133/29/16 134/44/16 137/47/16
f 137/47/17 134/44/17 132/46/17 135/48/17
f 139/7/18 136/6/18 137/47/18 140/49/18
f 140/49/19 137/47/19 135/48/19 138/50/19
f 142/11/20 139/10/20 140/51/20 143/52/20
f 143/52/21 140/51/21 138/53/21 141/54/21
f 145/13/22 142/11/22 143/52/22 146/55/22
f 146/55/23 143/52/23 141/54/23 144/56/23
f 148/15/24 145/13/24 146/55/24 149/57/24
f 149/57/25 146/55/25 144/56/25 147/58/25
f 151/17/26 148/15/26 149/57/26 152/59/26
f 152/59/27 149/57/27 147/58/27 150/60/27
f 154/21/28 151/20/28 152/61/28 155/62/28
f 155/62/29 152/61/29 150/63/29 153/64/29
f 157/23/30 154/21/30 155/62/30 158/65/30
f 158/65/31 155/62/31 153/64/31 156/66/31
f 160/25/32 157/23/32 158/65/32 161/67/32
f 161/67/33 158/65/33 156/66/33 159/68/33
f 163/27/34 160/25/34 161/67/34 164/69/34
f 164/69/35 161/67/35 159/68/35 162/70/35
f 130/3/36 163/2/36 164/71/36 131/43/36
f 131/43/37 164/71/37 162/72/37 129/45/37
f 132/73/38 129/74/38 162/75/38 159/76/38 156/77/38 153/78/38 150/79/38 147/80/38 144/81/38 141/82/38 138/83/38 135/84/38
s 1
f 1/85/39 2/86/39 3/87/39 4/88/39
f 5/89/40 6/90/40 7/91/40 8/92/40
f 8/92/41 7/93/41 9/94/41 10/95/41
f 10/95/4 9/94/4 11/96/4 12/97/4
f 12/97/42 11/96/42 13/98/42 14/99/42
f 14/99/43 13/98/43 15/100/43 16/101/43
f 16/102/7 15/103/7 17/104/7 18/105/7
f 18/105/44 17/104/44 19/106/44 20/107/44
f 20/107/45 19/106/45 21/108/45 22/109/45
f 22/109/10 21/108/10 2/110/10 1/111/10
f 23/112/38 3/113/38 2/114/38 21/115/38 19/116/38 17/117/38 15/118/38 13/119/38 11/120/38 9/121/38 7/122/38 6/123/38
f 24/124/12 23/125/12 6/90/12 5/89/12
f 4/88/46 3/87/46 23/125/46 24/124/46
f 4/88/47 24/124/47 25/126/47 26/127/47
f 26/127/48 25/126/48 27/128/48 28/129/48
f 28/130/49 27/131/49 29/132/49 30/133/49
f 24/124/50 5/89/50 31/134/50 25/126/50
f 25/126/51 31/134/51 32/135/51 27/128/51
f 27/131/52 32/136/52 33/137/52 29/132/52
f 5/89/53 8/92/53 34/138/53 31/134/53
f 31/134/54 34/138/54 35/139/54 32/135/54
f 32/136/55 35/140/55 36/141/55 33/137/55
f 8/92/56 10/95/56 37/142/56 34/143/56
f 34/143/57 37/142/57 38/144/57 35/145/57
f 35/140/58 38/146/58 39/147/58 36/141/58
f 10/95/59 12/97/59 40/148/59 37/142/59
f 37/142/60 40/148/60 41/149/60 38/144/60
f 38/146/61 41/150/61 42/151/61 39/147/61
f 12/97/62 14/99/62 43/152/62 40/148/62
f 40/148/63 43/152/63 44/153/63 41/149/63
f 41/150/64 44/154/64 45/155/64 42/151/64
f 14/99/65 16/101/65 46/156/65 43/152/65
f 43/152/66 46/156/66 47/157/66 44/153/66
f 44/154/67 47/158/67 48/159/67 45/155/67
f 16/102/68 18/105/68 49/160/68 46/161/68
f 46/161/69 49/160/69 50/162/69 47/163/69
f 47/158/70 50/164/70 51/165/70 48/159/70
f 18/105/71 20/107/71 52/166/71 49/160/71
f 49/160/72 52/166/72 53/167/72 50/162/72
f 50/164/73 53/168/73 54/169/73 51/165/73
f 20/107/74 22/109/74 55/170/74 52/166/74
f 52/166/75 55/170/75 56/171/75 53/167/75
f 53/168/76 56/172/76 57/173/76 54/169/76
f 22/109/77 1/111/77 58/174/77 55/170/77
f 55/170/78 58/174/78 59/175/78 56/171/78
f 56/172/79 59/176/79 60/177/79 57/173/79
f 1/85/80 4/88/80 26/127/80 58/178/80
f 58/178/81 26/127/81 28/129/81 59/179/81
f 59/176/82 28/130/82 30/133/82 60/177/82
f 30/133/13 29/132/13 33/137/13 36/141/13 39/147/13 42/151/13 45/155/13 48/159/13 51/165/13 54/169/13 57/173/13 60/177/13
f 61/180/4 62/181/4 63/182/4 64/183/4
f 65/184/7 66/185/7 67/186/7 68/187/7
f 69/188/10 70/189/10 71/190/10 72/191/10
f 73/192/83 74/193/83 75/194/83 76/195/83
f 77/196/38 78/197/38 79/198/38 80/199/38 75/200/38 74/201/38 81/202/38 82/203/38 83/204/38 84/205/38 85/206/38 86/207/38
f 74/201/38 87/208/38 88/209/38 89/210/38 78/197/38 77/196/38 90/211/38 91/212/38 92/213/38 93/214/38 94/215/38 81/202/38
f 95/216/84 80/217/84 79/218/84 96/219/84
f 97/220/85 78/221/85 89/222/85 98/223/85
f 99/224/86 88/225/86 87/226/86 100/227/86
f 100/228/13 73/229/13 76/230/13 95/231/13 96/232/13 97/233/13 98/234/13 99/235/13
f 75/194/87 80/236/87 101/237/87 102/238/87
f 80/236/88 95/239/88 103/240/88 101/237/88
f 95/239/89 76/195/89 104/241/89 103/240/89
f 76/195/90 75/194/90 102/238/90 104/241/90
f 99/224/91 98/242/91 65/184/91 68/187/91
f 98/223/92 89/222/92 66/243/92 65/244/92
f 89/245/93 88/225/93 67/186/93 66/185/93
f 88/225/94 99/224/94 68/187/94 67/186/94
f 79/218/95 78/221/95 61/180/95 64/183/95
f 78/221/96 97/220/96 62/181/96 61/180/96
f 97/220/97 96/219/97 63/182/97 62/181/97
f 96/219/98 79/218/98 64/183/98 63/182/98
f 87/226/99 74/246/99 69/188/99 72/191/99
f 74/193/100 73/192/100 70/247/100 69/248/100
f 73/249/101 100/227/101 71/190/101 70/189/101
f 100/227/102 87/226/102 72/191/102 71/190/102
f 101/237/12 103/240/12 104/241/12 102/238/12
f 82/250/43 105/251/43 106/252/43 83/253/43
f 83/254/7 106/255/7 107/256/7 84/257/7
f 107/256/44 108/258/44 85/259/44 84/257/44
f 108/258/45 109/260/45 86/261/45 85/259/45
f 109/260/10 110/262/10 77/263/10 86/261/10
f 110/264/39 111/265/39 90/266/39 77/267/39
f 111/265/46 112/268/46 91/269/46 90/266/46
f 91/269/12 112/268/12 113/270/12 92/271/12
f 92/271/40 113/270/40 114/272/40 93/273/40
f 93/274/41 114/275/41 115/276/41 94/277/41
f 94/277/4 115/276/4 116/278/4 81/279/4
f 81/279/42 116/278/42 105/251/42 82/250/42
f 114/280/38 113/281/38 112/282/38 111/283/38 110/284/38 109/285/38 108/286/38 107/287/38 106/288/38 105/289/38 116/290/38 115/291/38
