# Blender v2.93.5 OBJ File: ''
# www.blender.org
mtllib port.mtl
o 立方体.002
v 0.020000 0.060000 -0.020000
v -0.020000 0.060000 -0.020000
v -0.020000 0.060000 0.002535
v 0.020000 0.060000 0.002535
v -0.020000 -0.020000 -0.020000
v 0.020000 -0.020000 -0.020000
v -0.020000 -0.020000 0.020000
v -0.020000 0.033415 0.019555
v -0.020000 0.045601 0.016664
v -0.020000 0.053329 0.012801
v -0.020000 0.058290 0.007932
v 0.020000 -0.020000 0.020000
v 0.020000 0.058290 0.007932
v 0.020000 0.053329 0.012801
v 0.020000 0.045601 0.016664
v 0.020000 0.033172 0.019675
v -0.020000 0.060000 -0.133393
v -0.020000 0.060000 -0.000879
v 0.020000 0.060000 -0.000879
v 0.020000 0.020000 -0.133393
v -0.020000 0.020015 0.015978
v -0.020000 0.041620 0.014279
v -0.020000 0.053611 0.008954
v -0.020000 0.058363 0.004290
v 0.020000 0.020049 0.016054
v 0.020000 0.058363 0.004290
v 0.020000 0.053611 0.008954
v 0.020000 0.043233 0.013833
v 0.020000 0.060000 -0.133393
v -0.020000 0.020000 -0.133393
vt 0.375000 0.500000
vt 0.375000 0.250000
vt 0.625000 0.250000
vt 0.625000 0.500000
vt 0.375000 0.000000
vt 0.541868 0.004122
vt 0.580004 0.020847
vt 0.604153 0.044996
vt 0.619657 0.075426
vt 0.625000 0.109157
vt 0.125000 0.750000
vt 0.125000 0.500000
vt 0.375000 0.750000
vt 0.625000 0.715150
vt 0.625000 0.500000
vt 0.875000 0.500000
vt 0.875000 0.715150
vt 0.580004 0.729153
vt 0.541082 0.750000
vt 0.625000 0.640843
vt 0.619657 0.674574
vt 0.604153 0.705004
vt 0.875000 0.500000
vt 0.875000 0.640843
vt 0.625000 0.034850
vt 0.625000 0.250000
vt 0.375000 0.250000
vt 0.375096 0.000000
vt 0.509442 0.004162
vt 0.585066 0.014366
vt 0.614766 0.024081
vt 0.125000 0.750000
vt 0.125000 0.500000
vt 0.375000 0.500000
vt 0.375305 0.750000
vt 0.625000 0.674574
vt 0.875000 0.674574
vt 0.614766 0.725919
vt 0.585066 0.735634
vt 0.519578 0.750000
vt 0.625000 0.705004
vt 0.875000 0.705004
vt 0.580004 0.750000
vt 0.625000 0.750000
vt 0.625000 1.000000
vt 0.580004 1.000000
vt 0.541868 1.000000
vt 0.375000 1.000000
vt 0.625000 0.725919
vt 0.875000 0.725919
vt 0.625000 0.735634
vt 0.875000 0.735634
vt 0.625000 0.750000
vt 0.625000 1.000000
vt 0.509442 1.000000
vt 0.375096 1.000000
vn 0.0000 0.0000 -1.0000
vn -1.0000 -0.0000 0.0000
vn 0.0000 -1.0000 -0.0000
vn 0.0000 1.0000 0.0000
vn 0.5774 0.5774 -0.5774
vn -0.5774 0.5774 -0.5774
vn 1.0000 0.0000 0.0000
vn -0.5772 -0.5775 -0.5774
vn 0.0024 -0.6762 0.7368
vn 0.5775 -0.5774 -0.5772
vn 0.0024 -0.6748 0.7380
vn 0.0000 0.9533 0.3020
vn 0.0000 0.7005 0.7137
vn 0.0000 0.4471 0.8945
vn -0.0011 0.1205 0.9927
vn -0.0007 0.2332 0.9724
vn -0.0011 0.1214 0.9926
vn -0.0015 0.0072 1.0000
vn 0.0000 0.9533 0.3019
vn -0.0003 0.2591 0.9658
vn -0.0033 0.4150 0.9098
vn -0.0002 0.2504 0.9681
usemtl None
s 1
f 6/1/1 5/2/1 2/3/1 1/4/1
f 2/3/2 5/2/2 7/5/2 8/6/2 9/7/2 10/8/2 11/9/2 3/10/2
f 7/11/3 5/12/3 6/1/3 12/13/3
f 19/14/4 29/15/5 17/16/6 18/17/4
f 15/18/7 16/19/7 12/13/7 6/1/7 1/4/7 4/20/7 13/21/7 14/22/7
f 4/20/4 1/4/4 2/23/4 3/24/4
f 18/25/2 17/26/6 30/27/8 21/28/2 22/29/2 23/30/2 24/31/2
f 21/32/9 30/33/8 20/34/10 25/35/11
f 13/36/12 4/20/12 3/24/12 11/37/12
f 19/14/7 26/38/7 27/39/7 28/40/7 25/35/7 20/34/10 29/15/5
f 14/41/13 13/36/13 11/37/13 10/42/13
f 15/43/14 14/44/14 10/45/14 9/46/14
f 16/19/15 15/43/16 9/46/16 8/47/17
f 7/48/18 12/13/18 16/19/15 8/47/17
f 26/49/19 19/14/19 18/17/19 24/50/19
f 27/51/13 26/49/13 24/50/13 23/52/13
f 28/40/20 27/53/21 23/54/21 22/55/22
f 25/35/11 28/40/20 22/55/22 21/56/9
f 20/34/10 30/27/8 17/26/6 29/15/5
