# Blender v2.93.5 OBJ File: ''
# www.blender.org
mtllib port.mtl
o 立方体.002
v -0.020000 -0.020000 0.020000
v -0.020000 -0.020000 -0.020000
v -0.020000 0.060000 -0.020000
v 0.020000 -0.020000 0.020000
v 0.020000 -0.020000 -0.020000
v 0.020000 0.060000 -0.020000
v -0.020000 0.020000 0.015849
v -0.020000 0.020000 -0.104151
v -0.020000 0.060000 -0.104151
v 0.020000 0.020000 0.015849
v 0.020000 0.020000 -0.104151
v 0.020000 0.060000 -0.104151
v -0.020000 0.025070 0.020000
v -0.020000 0.060000 0.002535
v -0.020000 0.035864 0.019145
v -0.020000 0.045601 0.016664
v -0.020000 0.053329 0.012801
v -0.020000 0.058290 0.007932
v 0.020000 0.060000 0.002535
v 0.020000 0.025070 0.020000
v 0.020000 0.058290 0.007932
v 0.020000 0.053329 0.012801
v 0.020000 0.045601 0.016664
v 0.020000 0.035864 0.019145
v -0.020000 0.026544 0.015849
v -0.020000 0.060000 -0.000879
v -0.020000 0.036883 0.015030
v -0.020000 0.046209 0.012654
v -0.020000 0.053611 0.008954
v -0.020000 0.058363 0.004290
v 0.020000 0.060000 -0.000879
v 0.020000 0.026544 0.015849
v 0.020000 0.058363 0.004290
v 0.020000 0.053611 0.008954
v 0.020000 0.046209 0.012654
v 0.020000 0.036883 0.015030
vt 0.625000 0.500000
vt 0.875000 0.500000
vt 0.875000 0.640843
vt 0.625000 0.640843
vt 0.375000 0.250000
vt 0.625000 0.250000
vt 0.375000 0.500000
vt 0.375000 0.000000
vt 0.515843 0.000000
vt 0.549574 0.005343
vt 0.580004 0.020847
vt 0.604153 0.044996
vt 0.619657 0.075426
vt 0.625000 0.109157
vt 0.125000 0.500000
vt 0.375000 0.750000
vt 0.125000 0.750000
vt 0.619657 0.674574
vt 0.604153 0.705004
vt 0.580004 0.729153
vt 0.549574 0.744657
vt 0.515843 0.750000
vt 0.625000 0.500000
vt 0.875000 0.500000
vt 0.875000 0.715150
vt 0.625000 0.715150
vt 0.375000 0.250000
vt 0.625000 0.250000
vt 0.375000 0.500000
vt 0.375000 0.000000
vt 0.415901 0.000000
vt 0.480516 0.001706
vt 0.538806 0.006656
vt 0.585066 0.014366
vt 0.614766 0.024081
vt 0.625000 0.034850
vt 0.125000 0.500000
vt 0.375000 0.750000
vt 0.125000 0.750000
vt 0.614766 0.725919
vt 0.585066 0.735634
vt 0.538806 0.743344
vt 0.480516 0.748294
vt 0.415901 0.750000
vt 0.875000 0.674574
vt 0.625000 0.674574
vt 0.875000 0.705004
vt 0.625000 0.705004
vt 0.625000 0.750000
vt 0.625000 1.000000
vt 0.580004 1.000000
vt 0.580004 0.750000
vt 0.549574 1.000000
vt 0.549574 0.750000
vt 0.515843 1.000000
vt 0.375000 1.000000
vt 0.875000 0.725919
vt 0.625000 0.725919
vt 0.875000 0.735634
vt 0.625000 0.735634
vt 0.625000 0.750000
vt 0.625000 1.000000
vt 0.538806 1.000000
vt 0.538806 0.750000
vt 0.480516 1.000000
vt 0.480516 0.750000
vt 0.415901 1.000000
vt 0.375000 1.000000
vn 0.0000 1.0000 0.0000
vn 0.0000 0.0000 -1.0000
vn -1.0000 0.0000 0.0000
vn 0.0000 -1.0000 0.0000
vn 1.0000 0.0000 0.0000
vn 0.0000 0.9533 0.3020
vn 0.0000 0.7004 0.7137
vn 0.0000 0.4472 0.8944
vn 0.0000 0.2469 0.9690
vn 0.0000 0.0789 0.9969
vn 0.0000 0.0000 1.0000
usemtl None
s off
f 6/1/1 3/2/1 14/3/1 19/4/1
f 2/5/2 3/6/2 6/1/2 5/7/2
f 1/8/3 13/9/3 15/10/3 16/11/3 17/12/3 18/13/3 14/14/3 3/6/3 2/5/3
f 2/15/4 5/7/4 4/16/4 1/17/4
f 5/7/5 6/1/5 19/4/5 21/18/5 22/19/5 23/20/5 24/21/5 20/22/5 4/16/5
f 12/23/1 9/24/1 26/25/1 31/26/1
f 8/27/2 9/28/2 12/23/2 11/29/2
f 7/30/3 25/31/3 27/32/3 28/33/3 29/34/3 30/35/3 26/36/3 9/28/3 8/27/3
f 8/37/4 11/29/4 10/38/4 7/39/4
f 11/29/5 12/23/5 31/26/5 33/40/5 34/41/5 35/42/5 36/43/5 32/44/5 10/38/5
f 19/4/6 14/3/6 18/45/6 21/46/6
f 21/46/7 18/45/7 17/47/7 22/48/7
f 22/49/8 17/50/8 16/51/8 23/52/8
f 23/52/9 16/51/9 15/53/9 24/54/9
f 24/54/10 15/53/10 13/55/10 20/22/10
f 4/16/11 20/22/11 13/55/11 1/56/11
f 31/26/6 26/25/6 30/57/6 33/58/6
f 33/58/7 30/57/7 29/59/7 34/60/7
f 34/61/8 29/62/8 28/63/8 35/64/8
f 35/64/9 28/63/9 27/65/9 36/66/9
f 36/66/10 27/65/10 25/67/10 32/44/10
f 10/38/11 32/44/11 25/67/11 7/68/11
