# Blender v2.93.5 OBJ File: ''
# www.blender.org
mtllib screen.mtl
o 立方体
v 0.149288 0.100000 -0.147141
v -0.149288 0.100000 -0.149288
v -0.149288 0.112111 -0.149288
v 0.149288 0.112111 -0.147141
v 0.149288 0.100000 0.148361
v -0.149288 0.100000 0.149288
v -0.158563 0.097681 0.158563
v -0.128229 0.087322 0.200000
v 0.128229 0.087322 0.200000
v 0.155837 0.093089 0.155962
v -0.128229 0.000000 -0.200000
v -0.128229 0.087322 -0.200000
v 0.128229 0.087322 -0.200000
v 0.128229 0.000000 -0.200000
v 0.128229 -0.000000 0.200000
v -0.128229 -0.000000 0.200000
v 0.200000 0.000000 -0.128229
v 0.200000 0.087322 -0.128229
v 0.200000 0.087322 0.128229
v 0.200000 -0.000000 0.128229
v -0.149288 0.112111 0.149288
v 0.149288 0.112111 0.148361
v -0.140617 0.007731 -0.137914
v 0.142596 0.007731 -0.081498
v 0.142596 0.007731 0.093016
v -0.140617 0.007731 0.145378
v 0.158210 0.093098 -0.157797
v -0.158563 0.097681 -0.158563
v -0.200000 0.087322 -0.128229
v -0.200000 0.087322 0.128229
v -0.200000 -0.000000 0.128229
v -0.200000 0.000000 -0.128229
v -0.196487 0.087322 0.150408
v -0.186293 0.087322 0.170415
v -0.170415 0.087322 0.186293
v -0.150408 0.087322 0.196487
v -0.150408 0.087322 -0.196487
v -0.170415 0.087322 -0.186293
v -0.186293 0.087322 -0.170415
v -0.196487 0.087322 -0.150408
v 0.150408 0.087322 0.196487
v 0.170415 0.087322 0.186293
v 0.186293 0.087322 0.170415
v 0.196487 0.087322 0.150408
v 0.196487 0.087322 -0.150408
v 0.186293 0.087322 -0.170415
v 0.170415 0.087322 -0.186293
v 0.150408 0.087322 -0.196487
v 0.196487 -0.000000 0.150408
v 0.186293 -0.000000 0.170415
v 0.170415 -0.000000 0.186293
v 0.150408 -0.000000 0.196487
v -0.196487 -0.000000 0.150408
v -0.186293 -0.000000 0.170415
v -0.170415 -0.000000 0.186293
v -0.150408 -0.000000 0.196487
v -0.150408 0.000000 -0.196487
v -0.170415 0.000000 -0.186293
v -0.186293 0.000000 -0.170415
v -0.196487 0.000000 -0.150408
v 0.196487 0.000000 -0.150408
v 0.186293 0.000000 -0.170415
v 0.170415 0.000000 -0.186293
v 0.150408 0.000000 -0.196487
v -0.394908 0.304053 0.394406
v 0.394908 0.304053 0.391954
v -0.394908 0.304053 -0.395410
v 0.394908 0.304053 -0.389730
v -0.350136 0.324886 0.349495
v 0.350136 0.324886 0.347321
v -0.350136 0.324886 -0.350315
v 0.350136 0.324886 -0.345279
v -0.394908 0.357731 0.394406
v 0.394908 0.357731 0.391954
v -0.394908 0.357731 -0.395410
v 0.394908 0.357731 -0.389730
v -0.350136 0.357731 0.349495
v 0.350136 0.357731 0.347321
v -0.350136 0.357731 -0.350315
v 0.350136 0.357731 -0.345279
vt 0.834593 0.311144
vt 1.000000 0.311144
vt 1.000000 0.506961
vt 0.834593 0.506961
vt 0.409416 0.582658
vt 0.633685 0.583032
vt 0.638777 0.590196
vt 0.607615 0.622284
vt 0.414982 0.622581
vt 0.398908 0.588458
vt 0.141060 0.000000
vt 0.141060 0.271697
vt 0.000000 0.271697
vt 0.000000 0.000000
vt 0.000000 0.810890
vt 0.000000 0.539193
vt 0.141060 0.539193
vt 0.141060 0.810890
vt 0.892229 0.000000
vt 0.892229 0.271697
vt 0.751169 0.271697
vt 0.751169 0.000000
vt 0.180536 0.506961
vt 0.344762 0.506961
vt 0.344762 0.506961
vt 0.180536 0.506961
vt 0.834593 0.475880
vt 0.834593 0.638415
vt 0.638777 0.638415
vt 0.638777 0.475880
vt 0.180536 0.311144
vt 0.344762 0.311144
vt 0.638777 0.638415
vt 0.859077 0.682299
vt 0.859077 0.818047
vt 0.638777 0.858777
vt 0.834593 0.311144
vt 0.638777 0.311144
vt 0.633685 0.350785
vt 0.409416 0.352802
vt 0.397133 0.344404
vt 0.414982 0.311442
vt 0.607615 0.311144
vt 0.638777 0.343520
vt 0.361072 0.566838
vt 0.361072 0.367352
vt 0.180536 0.303930
vt 0.220012 0.271697
vt 0.361072 0.271698
vt 0.354965 0.303930
vt 0.361072 0.000000
vt 0.220012 0.000000
vt 0.220012 0.539193
vt 0.205881 0.539193
vt 0.180536 0.506961
vt 0.189269 0.539193
vt 0.171803 0.539193
vt 0.155191 0.539193
vt 0.155191 0.271697
vt 0.171803 0.271697
vt 0.189269 0.271697
vt 0.205881 0.271697
vt 0.398323 0.619875
vt 0.383294 0.611969
vt 0.371368 0.599636
vt 0.363711 0.584085
vt 0.363711 0.350097
vt 0.371368 0.334522
vt 0.383294 0.322153
vt 0.398323 0.314200
vt 0.737038 0.271697
vt 0.737038 0.000000
vt 0.720426 0.271697
vt 0.720426 0.000000
vt 0.702959 0.271697
vt 0.702959 0.000000
vt 0.686348 0.271697
vt 0.686348 0.000000
vt 0.672217 0.271697
vt 0.672217 0.000000
vt 0.220012 0.810890
vt 0.205881 0.810890
vt 0.189269 0.810890
vt 0.171803 0.810890
vt 0.155191 0.810890
vt 0.155191 0.000000
vt 0.171803 0.000000
vt 0.189270 0.000000
vt 0.205881 0.000000
vt 0.220012 0.778658
vt 0.220012 0.506961
vt 0.234143 0.506961
vt 0.234143 0.778658
vt 0.250755 0.506961
vt 0.250755 0.778658
vt 0.268222 0.506961
vt 0.268222 0.778658
vt 0.284834 0.506961
vt 0.284834 0.778658
vt 0.298965 0.506961
vt 0.298965 0.778658
vt 0.416900 0.311144
vt 0.399648 0.308412
vt 0.384085 0.300482
vt 0.371734 0.288131
vt 0.363805 0.272568
vt 0.361072 0.255317
vt 0.361072 0.055828
vt 0.363805 0.038576
vt 0.371734 0.023013
vt 0.384085 0.010662
vt 0.399648 0.002732
vt 0.416900 0.000000
vt 0.616389 0.000000
vt 0.633641 0.002732
vt 0.649204 0.010662
vt 0.661554 0.023013
vt 0.669484 0.038576
vt 0.672217 0.055828
vt 0.672217 0.255317
vt 0.669484 0.272568
vt 0.661554 0.288131
vt 0.649204 0.300482
vt 0.633641 0.308412
vt 0.616389 0.311144
vt 0.344762 0.506961
vt 0.180536 0.506961
vt 1.000000 0.506961
vt 0.834593 0.506961
vt 0.638777 0.638415
vt 0.638777 0.475880
vt 0.638777 0.311144
vt 0.373785 0.637649
vt 0.572629 0.635861
vt 0.572629 0.841641
vt 0.373785 0.841310
vt 0.638777 0.638415
vt 0.638777 0.475880
vt 0.638777 0.311144
vt 1.000000 0.506961
vt 0.834593 0.506961
vt 0.373785 0.841310
vt 0.572629 0.841641
vt 0.585342 0.854828
vt 0.361072 0.854454
vt 0.572629 0.635861
vt 0.585342 0.622581
vt 0.373785 0.637649
vt 0.361072 0.624598
vn 0.0072 0.0000 -1.0000
vn 0.0089 0.9698 0.2438
vn 0.0000 0.0000 -1.0000
vn 0.0000 -0.0000 1.0000
vn 1.0000 -0.0000 0.0000
vn -0.3396 -0.8755 -0.3438
vn -0.3409 -0.8751 0.3437
vn -0.3419 -0.8751 0.3426
vn -0.3407 -0.8755 -0.3427
vn -1.0000 0.0000 0.0000
vn 0.0000 -1.0000 -0.0000
vn 0.0031 -0.0000 1.0000
vn 0.0083 0.9706 -0.2406
vn 0.2486 0.9686 0.0010
vn -0.2425 0.9701 0.0000
vn -0.2719 0.9614 0.0431
vn -0.2901 0.9455 0.1478
vn -0.2454 0.9378 0.2454
vn -0.1478 0.9455 0.2901
vn -0.0431 0.9614 0.2719
vn -0.0431 0.9614 -0.2719
vn -0.1478 0.9455 -0.2901
vn -0.2454 0.9378 -0.2454
vn -0.2901 0.9455 -0.1478
vn -0.2719 0.9614 -0.0431
vn 0.0228 0.9893 0.1438
vn 0.0767 0.9856 0.1505
vn 0.1263 0.9839 0.1263
vn 0.1503 0.9857 0.0766
vn 0.1435 0.9894 0.0227
vn 0.1538 0.9878 -0.0244
vn 0.1645 0.9828 -0.0838
vn 0.1391 0.9804 -0.1391
vn 0.0833 0.9830 -0.1636
vn 0.0241 0.9880 -0.1524
vn 0.9877 0.0000 0.1564
vn 0.8910 -0.0000 0.4540
vn 0.7071 -0.0000 0.7071
vn 0.4540 -0.0000 0.8910
vn 0.1564 -0.0000 0.9877
vn -0.9877 0.0000 0.1564
vn -0.8910 -0.0000 0.4540
vn -0.7071 -0.0000 0.7071
vn -0.4540 -0.0000 0.8910
vn -0.1564 -0.0000 0.9877
vn -0.1564 0.0000 -0.9877
vn -0.4540 0.0000 -0.8910
vn -0.7071 0.0000 -0.7071
vn -0.8910 0.0000 -0.4540
vn -0.9877 0.0000 -0.1564
vn 0.9877 -0.0000 -0.1564
vn 0.8910 0.0000 -0.4540
vn 0.7071 0.0000 -0.7071
vn 0.4540 0.0000 -0.8910
vn 0.1564 0.0000 -0.9877
vn -0.7046 0.0000 -0.7096
vn -0.7060 0.0000 0.7082
vn 0.3440 -0.8740 -0.3432
vn 0.3451 -0.8740 -0.3421
vn 0.3427 -0.8744 0.3434
vn 0.3438 -0.8744 0.3423
vn -0.0000 1.0000 0.0000
vn 0.7082 0.0000 0.7060
vn 0.7096 0.0000 -0.7046
vn -0.7082 0.0000 -0.7060
vn 0.7060 0.0000 -0.7082
vn 0.7046 0.0000 0.7096
vn -0.7096 0.0000 0.7046
usemtl 材质
s 1
f 1/1/1 2/2/1 3/3/1 4/4/1
f 5/5/2 6/6/2 7/7/2 8/8/2 9/9/2 10/10/2
f 11/11/3 12/12/3 13/13/3 14/14/3
f 15/15/4 9/16/4 8/17/4 16/18/4
f 17/19/5 18/20/5 19/21/5 20/22/5
f 3/23/6 21/24/7 65/25/8 67/26/9
f 5/27/5 1/28/5 4/29/5 22/30/5
f 2/31/10 6/32/10 21/24/10 3/23/10
f 23/33/11 24/34/11 25/35/11 26/36/11
f 6/37/12 5/27/12 22/30/12 21/38/12
f 2/39/13 1/40/13 27/41/13 13/42/13 12/43/13 28/44/13
f 1/40/14 5/5/14 10/10/14 19/45/14 18/46/14 27/41/14
f 6/32/15 2/31/15 28/47/15 29/48/15 30/49/15 7/50/15
f 31/51/10 30/49/10 29/48/10 32/52/10
f 30/53/16 33/54/16 7/55/16
f 33/54/17 34/56/17 7/55/17
f 34/56/18 35/57/18 7/55/18
f 35/57/19 36/58/19 7/55/19
f 36/58/20 8/17/20 7/55/20
f 12/12/21 37/59/21 28/47/21
f 37/59/22 38/60/22 28/47/22
f 38/60/23 39/61/23 28/47/23
f 39/61/24 40/62/24 28/47/24
f 40/62/25 29/48/25 28/47/25
f 9/9/26 41/63/26 10/10/26
f 41/63/27 42/64/27 10/10/27
f 42/64/28 43/65/28 10/10/28
f 43/65/29 44/66/29 10/10/29
f 44/66/30 19/45/30 10/10/30
f 18/46/31 45/67/31 27/41/31
f 45/67/32 46/68/32 27/41/32
f 46/68/33 47/69/33 27/41/33
f 47/69/34 48/70/34 27/41/34
f 48/70/35 13/42/35 27/41/35
f 20/22/36 19/21/36 44/71/36 49/72/36
f 49/72/37 44/71/37 43/73/37 50/74/37
f 50/74/38 43/73/38 42/75/38 51/76/38
f 51/76/39 42/75/39 41/77/39 52/78/39
f 52/78/40 41/77/40 9/79/40 15/80/40
f 30/53/41 31/81/41 53/82/41 33/54/41
f 33/54/42 53/82/42 54/83/42 34/56/42
f 34/56/43 54/83/43 55/84/43 35/57/43
f 35/57/44 55/84/44 56/85/44 36/58/44
f 36/58/45 56/85/45 16/18/45 8/17/45
f 12/12/46 11/11/46 57/86/46 37/59/46
f 37/59/47 57/86/47 58/87/47 38/60/47
f 38/60/48 58/87/48 59/88/48 39/61/48
f 39/61/49 59/88/49 60/89/49 40/62/49
f 40/62/50 60/89/50 32/52/50 29/48/50
f 18/90/51 17/91/51 61/92/51 45/93/51
f 45/93/52 61/92/52 62/94/52 46/95/52
f 46/95/53 62/94/53 63/96/53 47/97/53
f 47/97/54 63/96/54 64/98/54 48/99/54
f 48/99/55 64/98/55 14/100/55 13/101/55
f 32/102/11 60/103/11 59/104/11 58/105/11 57/106/11 11/107/11 14/108/11 64/109/11 63/110/11 62/111/11 61/112/11 17/113/11 20/114/11 49/115/11 50/116/11 51/117/11 52/118/11 15/119/11 16/120/11 56/121/11 55/122/11 54/123/11 53/124/11 31/125/11
f 67/26/56 65/25/57 73/126/57 75/127/56
f 4/4/58 3/3/6 67/128/9 68/129/59
f 22/30/60 4/29/58 68/130/59 66/131/61
f 21/38/7 22/30/60 66/131/61 65/132/8
f 72/133/62 71/134/62 69/135/62 70/136/62
f 66/131/63 68/130/64 76/137/64 74/138/63
f 65/132/57 66/131/63 74/138/63 73/139/57
f 68/129/64 67/128/56 75/140/56 76/141/64
f 78/142/62 77/143/62 73/144/62 74/145/62
f 77/143/62 79/146/62 75/147/62 73/144/62
f 80/148/62 78/142/62 74/145/62 76/149/62
f 79/146/62 80/148/62 76/149/62 75/147/62
f 70/136/65 69/135/66 77/143/66 78/142/65
f 69/135/66 71/134/67 79/146/67 77/143/66
f 72/133/68 70/136/65 78/142/65 80/148/68
f 71/134/67 72/133/68 80/148/68 79/146/67
