# Blender v2.93.5 OBJ File: ''
# www.blender.org
mtllib triangle.mtl
o 立方体
v 0.149290 0.100000 0.000000
v 0.149288 0.100000 0.000000
v 0.149288 0.162934 0.000000
v 0.149290 0.162934 0.000000
v -0.122326 0.100000 0.170000
v -0.123253 0.100000 -0.170000
v -0.158563 0.097681 -0.158563
v -0.200000 0.087322 -0.128229
v -0.200000 0.087322 0.128229
v -0.155962 0.093089 0.155837
v 0.200000 0.000000 -0.128229
v 0.200000 0.087322 -0.128229
v 0.200000 0.087322 0.128229
v 0.200000 0.000000 0.128229
v -0.200000 -0.000000 0.128229
v -0.200000 -0.000000 -0.128229
v 0.128229 0.000000 0.200000
v 0.128229 0.087322 0.200000
v -0.128229 0.087322 0.200000
v -0.128229 -0.000000 0.200000
v -0.123253 0.162934 -0.170000
v -0.122326 0.162934 0.170000
v 0.137914 0.007731 -0.140617
v 0.081498 0.007731 0.142596
v -0.093016 0.007731 0.142596
v -0.145378 0.007731 -0.140617
v 0.157797 0.093098 0.158210
v 0.158563 0.097681 -0.158563
v 0.128229 0.087322 -0.200000
v -0.128229 0.087322 -0.200000
v -0.128229 -0.000000 -0.200000
v 0.128229 0.000000 -0.200000
v -0.150408 0.087322 -0.196487
v -0.170415 0.087322 -0.186293
v -0.186293 0.087322 -0.170415
v -0.196487 0.087322 -0.150408
v 0.196487 0.087322 -0.150408
v 0.186293 0.087322 -0.170415
v 0.170415 0.087322 -0.186293
v 0.150408 0.087322 -0.196487
v -0.196487 0.087322 0.150408
v -0.186293 0.087322 0.170415
v -0.170415 0.087322 0.186293
v -0.150408 0.087322 0.196487
v 0.150408 0.087322 0.196487
v 0.170415 0.087322 0.186293
v 0.186293 0.087322 0.170415
v 0.196487 0.087322 0.150408
v -0.150408 -0.000000 0.196487
v -0.170415 -0.000000 0.186293
v -0.186293 -0.000000 0.170415
v -0.196487 -0.000000 0.150408
v -0.150408 -0.000000 -0.196487
v -0.170415 -0.000000 -0.186293
v -0.186293 -0.000000 -0.170415
v -0.196487 -0.000000 -0.150408
v 0.196487 0.000000 -0.150408
v 0.186293 0.000000 -0.170415
v 0.170415 0.000000 -0.186293
v 0.150408 0.000000 -0.196487
v 0.150408 0.000000 0.196487
v 0.170415 0.000000 0.186293
v 0.186293 0.000000 0.170415
v 0.196487 0.000000 0.150408
vt 0.801713 0.080839
vt 0.448048 0.079806
vt 0.459856 0.043068
vt 0.491013 0.000000
vt 0.757778 0.000052
vt 0.786716 0.045864
vt 0.923326 0.254946
vt 0.832433 0.254946
vt 0.832433 0.018726
vt 0.923326 0.018726
vt 0.283201 0.479409
vt 0.374094 0.479409
vt 0.374094 0.745186
vt 0.283201 0.745186
vt 0.802045 0.501844
vt 0.892937 0.501844
vt 0.892937 0.748239
vt 0.802045 0.748239
vt 0.000000 0.594018
vt 0.000002 0.594018
vt 0.283201 0.416357
vt 0.283201 0.770023
vt 0.988834 0.000000
vt 0.988834 0.329042
vt 0.923326 0.329042
vt 0.923326 0.000000
vt 0.481865 0.711280
vt 0.481865 1.000000
vt 0.416357 1.000000
vt 0.416357 0.711280
vt 0.711152 0.711280
vt 0.416357 0.652557
vt 0.416357 0.470906
vt 0.711152 0.416403
vt 0.892937 0.768849
vt 0.892938 0.416403
vt 0.958445 0.416403
vt 0.958445 0.768849
vt 0.624880 0.363523
vt 0.624880 0.363525
vt 0.789185 0.372449
vt 0.757778 0.416403
vt 0.491013 0.416352
vt 0.459856 0.373158
vt 0.832433 0.074771
vt 0.832433 0.341713
vt 0.416357 0.341632
vt 0.416357 0.074690
vt 0.802045 0.723475
vt 0.711152 0.723475
vt 0.711152 0.458351
vt 0.802045 0.458351
vt 0.420011 0.051606
vt 0.430615 0.030783
vt 0.447131 0.014259
vt 0.467942 0.003652
vt 0.467942 0.412690
vt 0.447131 0.402076
vt 0.430615 0.385545
vt 0.420011 0.364718
vt 0.780848 0.003713
vt 0.801659 0.014327
vt 0.818175 0.030858
vt 0.828779 0.051685
vt 0.828779 0.364798
vt 0.818175 0.385620
vt 0.801659 0.402144
vt 0.780848 0.412751
vt 0.892937 0.768141
vt 0.802045 0.768141
vt 0.892937 0.783281
vt 0.802045 0.783281
vt 0.283201 0.416357
vt 0.374094 0.416357
vt 0.374094 0.434357
vt 0.283201 0.434357
vt 0.374094 0.456082
vt 0.283201 0.456082
vt 0.802045 0.746830
vt 0.711152 0.746830
vt 0.802045 0.768750
vt 0.711152 0.768750
vt 0.802045 0.787092
vt 0.711152 0.787092
vt 0.374094 0.787572
vt 0.283201 0.787572
vt 0.283201 0.767830
vt 0.374094 0.767830
vt 0.923326 0.277078
vt 0.832433 0.277078
vt 0.923326 0.300448
vt 0.832433 0.300448
vt 0.923326 0.322771
vt 0.832433 0.322771
vt 0.711152 0.416403
vt 0.802045 0.416403
vt 0.802045 0.435849
vt 0.711152 0.435849
vt 0.802045 0.479128
vt 0.892938 0.479128
vt 0.802045 0.455824
vt 0.892938 0.455824
vt 0.802045 0.434210
vt 0.892938 0.434210
vt 0.802045 0.416403
vt 0.892938 0.416403
vt 0.832433 0.000000
vt 0.923326 0.000000
vt 0.074706 0.416357
vt 0.051620 0.412701
vt 0.030795 0.402090
vt 0.014268 0.385562
vt 0.003657 0.364737
vt 0.000000 0.341651
vt 0.000000 0.074706
vt 0.003657 0.051620
vt 0.014268 0.030795
vt 0.030795 0.014268
vt 0.051620 0.003657
vt 0.074706 0.000000
vt 0.341651 0.000000
vt 0.364737 0.003657
vt 0.385562 0.014268
vt 0.402090 0.030795
vt 0.412701 0.051620
vt 0.416357 0.074706
vt 0.416357 0.341651
vt 0.412701 0.364737
vt 0.402090 0.385562
vt 0.385562 0.402090
vt 0.364737 0.412701
vt 0.341651 0.416357
vn -0.1602 0.9870 0.0082
vn 1.0000 0.0000 0.0000
vn -1.0000 -0.0000 0.0000
vn 0.0000 0.0000 1.0000
vn -0.0000 1.0000 -0.0000
vn 0.5305 0.0000 0.8477
vn 0.5292 0.0000 -0.8485
vn 0.0000 -1.0000 0.0000
vn -1.0000 -0.0000 0.0027
vn 0.2215 0.9751 0.0088
vn 0.0176 0.9935 0.1128
vn 0.0060 0.9937 -0.1119
vn 0.0000 0.0000 -1.0000
vn -0.0431 0.9614 -0.2719
vn -0.1478 0.9455 -0.2901
vn -0.2454 0.9378 -0.2454
vn -0.2901 0.9455 -0.1478
vn -0.2719 0.9614 -0.0431
vn 0.2719 0.9614 -0.0431
vn 0.2901 0.9455 -0.1478
vn 0.2454 0.9378 -0.2454
vn 0.1478 0.9455 -0.2901
vn 0.0431 0.9614 -0.2719
vn -0.1438 0.9893 0.0228
vn -0.1505 0.9856 0.0767
vn -0.1263 0.9839 0.1263
vn -0.0766 0.9857 0.1503
vn -0.0227 0.9894 0.1435
vn 0.0244 0.9878 0.1538
vn 0.0838 0.9828 0.1645
vn 0.1391 0.9804 0.1391
vn 0.1636 0.9830 0.0833
vn 0.1524 0.9880 0.0241
vn -0.1564 0.0000 0.9877
vn -0.4540 -0.0000 0.8910
vn -0.7071 -0.0000 0.7071
vn -0.8910 0.0000 0.4540
vn -0.9877 -0.0000 0.1564
vn -0.1564 0.0000 -0.9877
vn -0.4540 -0.0000 -0.8910
vn -0.7071 0.0000 -0.7071
vn -0.8910 0.0000 -0.4540
vn -0.9877 -0.0000 -0.1564
vn 0.9877 0.0000 -0.1564
vn 0.8910 0.0000 -0.4540
vn 0.7071 0.0000 -0.7071
vn 0.4540 0.0000 -0.8910
vn 0.1564 0.0000 -0.9877
vn 0.1564 0.0000 0.9877
vn 0.4540 0.0000 0.8910
vn 0.7071 0.0000 0.7071
vn 0.8910 0.0000 0.4540
vn 0.9877 0.0000 0.1564
usemtl 材质
s 1
f 5/1/1 6/2/1 7/3/1 8/4/1 9/5/1 10/6/1
f 11/7/2 12/8/2 13/9/2 14/10/2
f 15/11/3 9/12/3 8/13/3 16/14/3
f 17/15/4 18/16/4 19/17/4 20/18/4
f 4/19/5 3/20/5 21/21/5 22/22/5
f 5/23/6 1/24/6 4/25/6 22/26/6
f 2/27/7 6/28/7 21/29/7 3/30/7
f 23/31/8 24/32/8 25/33/8 26/34/8
f 6/35/9 5/36/9 22/37/9 21/38/9
f 2/39/10 1/40/10 27/41/10 13/42/10 12/43/10 28/44/10
f 1/40/11 5/1/11 10/6/11 19/45/11 18/46/11 27/41/11
f 6/2/12 2/39/12 28/44/12 29/47/12 30/48/12 7/3/12
f 31/49/13 30/50/13 29/51/13 32/52/13
f 30/48/14 33/53/14 7/3/14
f 33/53/15 34/54/15 7/3/15
f 34/54/16 35/55/16 7/3/16
f 35/55/17 36/56/17 7/3/17
f 36/56/18 8/4/18 7/3/18
f 12/43/19 37/57/19 28/44/19
f 37/57/20 38/58/20 28/44/20
f 38/58/21 39/59/21 28/44/21
f 39/59/22 40/60/22 28/44/22
f 40/60/23 29/47/23 28/44/23
f 9/5/24 41/61/24 10/6/24
f 41/61/25 42/62/25 10/6/25
f 42/62/26 43/63/26 10/6/26
f 43/63/27 44/64/27 10/6/27
f 44/64/28 19/45/28 10/6/28
f 18/46/29 45/65/29 27/41/29
f 45/65/30 46/66/30 27/41/30
f 46/66/31 47/67/31 27/41/31
f 47/67/32 48/68/32 27/41/32
f 48/68/33 13/42/33 27/41/33
f 20/18/34 19/17/34 44/69/34 49/70/34
f 49/70/35 44/69/35 43/71/35 50/72/35
f 50/73/36 43/74/36 42/75/36 51/76/36
f 51/76/37 42/75/37 41/77/37 52/78/37
f 52/78/38 41/77/38 9/12/38 15/11/38
f 30/50/39 31/49/39 53/79/39 33/80/39
f 33/80/40 53/79/40 54/81/40 34/82/40
f 34/82/41 54/81/41 55/83/41 35/84/41
f 35/85/42 55/86/42 56/87/42 36/88/42
f 36/88/43 56/87/43 16/14/43 8/13/43
f 12/8/44 11/7/44 57/89/44 37/90/44
f 37/90/45 57/89/45 58/91/45 38/92/45
f 38/92/46 58/91/46 59/93/46 39/94/46
f 39/95/47 59/96/47 60/97/47 40/98/47
f 40/98/48 60/97/48 32/52/48 29/51/48
f 18/16/49 17/15/49 61/99/49 45/100/49
f 45/100/50 61/99/50 62/101/50 46/102/50
f 46/102/51 62/101/51 63/103/51 47/104/51
f 47/104/52 63/103/52 64/105/52 48/106/52
f 48/107/53 64/108/53 14/10/53 13/9/53
f 32/109/8 60/110/8 59/111/8 58/112/8 57/113/8 11/114/8 14/115/8 64/116/8 63/117/8 62/118/8 61/119/8 17/120/8 20/121/8 49/122/8 50/123/8 51/124/8 52/125/8 15/126/8 16/127/8 56/128/8 55/129/8 54/130/8 53/131/8 31/132/8
